<?xml version="1.0" encoding="UTF-8" standalone="no"?>
<svg xmlns="http://www.w3.org/2000/svg" version="1.2" baseProfile="tiny" viewBox="0.00 0.00 1868.00 1121.00">
<path fill="#000000" d="
  M 0.00 0.00
  L 1868.00 0.00
  L 1868.00 1121.00
  L 0.00 1121.00
  L 0.00 0.00
  Z
  M 1439.96 147.05
  C 1446.49 156.88 1456.25 163.04 1464.73 170.87
  Q 1472.44 177.99 1481.01 184.07
  C 1489.01 189.74 1490.65 196.91 1490.86 206.39
  Q 1491.11 218.00 1489.69 229.56
  C 1489.17 233.78 1485.87 235.18 1485.95 240.22
  C 1486.13 251.58 1487.47 262.94 1487.51 274.25
  Q 1487.51 274.79 1487.07 275.10
  C 1485.04 276.52 1480.85 277.82 1480.71 280.63
  C 1479.44 307.69 1480.89 334.68 1480.51 361.75
  Q 1480.23 381.91 1480.76 393.26
  Q 1480.90 396.10 1483.19 399.92
  Q 1483.45 400.34 1483.46 400.84
  C 1483.55 409.74 1484.52 418.81 1484.37 427.40
  C 1484.25 434.60 1482.47 449.22 1486.86 455.10
  C 1487.95 456.56 1487.94 457.28 1488.00 459.00
  C 1488.56 476.59 1487.53 490.71 1488.80 508.96
  Q 1488.83 509.46 1489.20 509.81
  L 1494.69 515.04
  Q 1495.07 515.41 1495.19 515.92
  C 1498.00 527.82 1494.08 541.29 1497.18 553.05
  C 1501.14 568.12 1513.52 579.88 1517.25 594.44
  C 1520.53 607.22 1516.58 619.17 1515.57 631.62
  Q 1514.01 650.80 1510.61 673.67
  Q 1509.15 683.54 1508.99 695.53
  C 1508.87 704.40 1513.37 711.65 1517.95 719.22
  C 1522.45 726.65 1521.47 738.64 1529.11 743.33
  C 1530.70 744.30 1531.64 745.48 1530.77 747.27
  C 1526.96 755.06 1518.52 756.30 1511.05 758.79
  C 1504.03 761.13 1506.40 767.07 1509.29 771.98
  C 1514.58 780.96 1517.16 792.65 1513.41 802.75
  C 1509.23 814.02 1507.77 822.30 1497.78 830.30
  C 1494.29 833.09 1492.55 836.49 1495.99 840.07
  Q 1496.36 840.46 1496.89 840.46
  Q 1513.63 840.56 1529.90 836.72
  Q 1530.41 836.60 1530.73 836.18
  Q 1531.61 834.97 1532.59 833.89
  C 1536.57 829.47 1545.08 829.99 1550.03 832.06
  C 1555.90 834.51 1556.68 842.56 1564.49 834.47
  C 1566.90 831.98 1569.41 830.83 1573.09 830.35
  C 1587.59 828.44 1607.03 825.48 1620.45 816.46
  C 1646.92 798.66 1649.25 769.22 1650.83 740.50
  C 1651.05 736.47 1653.13 733.89 1655.44 730.86
  A 1.72 1.68 66.6 0 0 1655.79 729.95
  C 1657.16 713.80 1655.03 696.79 1657.99 680.91
  C 1659.03 675.32 1663.53 671.81 1664.18 666.18
  C 1665.11 658.17 1665.41 650.00 1664.96 641.27
  C 1662.84 599.87 1660.86 562.87 1666.13 524.07
  C 1666.83 518.86 1668.40 511.17 1673.15 508.41
  C 1680.12 504.36 1684.52 494.05 1685.84 486.68
  C 1688.31 472.98 1682.52 457.72 1685.31 443.81
  C 1686.77 436.56 1693.08 432.06 1694.01 424.96
  C 1697.16 400.85 1696.67 377.72 1693.91 353.34
  C 1693.03 345.61 1686.92 340.31 1686.08 331.99
  C 1683.84 309.80 1688.37 288.43 1683.13 270.11
  C 1681.25 263.54 1676.46 257.97 1674.24 251.56
  C 1670.79 241.57 1670.22 231.04 1663.71 222.89
  Q 1661.99 220.73 1653.27 213.73
  C 1648.15 209.62 1639.29 199.23 1632.96 198.45
  C 1625.82 197.57 1614.66 197.90 1609.10 192.62
  C 1605.04 188.77 1601.19 188.92 1596.60 187.07
  Q 1593.16 185.68 1589.54 184.92
  C 1586.81 184.35 1584.09 183.26 1581.25 182.81
  C 1578.87 182.44 1575.56 180.89 1573.00 181.51
  C 1568.17 182.67 1565.27 183.54 1560.35 182.45
  C 1555.96 181.47 1551.71 179.68 1547.56 178.76
  Q 1538.91 176.84 1536.42 175.36
  C 1530.88 172.07 1527.22 166.63 1522.96 164.02
  Q 1514.25 158.70 1498.08 151.15
  Q 1494.77 149.61 1492.08 149.28
  C 1488.62 148.87 1485.03 149.71 1481.79 149.10
  C 1477.34 148.26 1473.44 143.57 1470.45 143.09
  Q 1456.44 140.83 1442.33 141.79
  C 1438.60 142.04 1438.10 144.25 1439.96 147.05
  Z
  M 1729.47 170.91
  A 28.04 28.04 0.0 0 0 1701.43 142.87
  A 28.04 28.04 0.0 0 0 1673.39 170.91
  A 28.04 28.04 0.0 0 0 1701.43 198.95
  A 28.04 28.04 0.0 0 0 1729.47 170.91
  Z
  M 1464.52 661.90
  C 1462.60 658.25 1466.11 652.49 1468.61 649.77
  C 1472.27 645.80 1472.54 642.16 1471.64 636.59
  Q 1467.29 609.82 1466.60 582.69
  C 1466.47 577.43 1466.45 572.83 1460.19 571.13
  C 1451.84 568.85 1448.79 557.80 1447.99 550.35
  C 1446.08 532.56 1448.10 514.67 1446.55 496.95
  C 1445.48 484.80 1442.80 474.88 1434.84 464.92
  Q 1434.23 464.16 1433.42 463.62
  Q 1432.97 463.33 1432.43 463.35
  L 1428.10 463.55
  Q 1427.50 463.58 1427.16 463.08
  C 1424.45 459.15 1429.69 455.09 1429.48 450.73
  Q 1429.46 450.24 1429.17 449.84
  C 1420.77 438.31 1408.06 429.99 1397.42 423.40
  Q 1396.99 423.13 1396.48 423.16
  Q 1393.42 423.33 1390.43 424.05
  C 1382.92 425.86 1384.19 414.53 1385.82 410.90
  A 2.33 2.32 -81.7 0 1 1387.64 409.54
  C 1417.55 405.62 1435.43 375.85 1445.08 349.85
  C 1448.43 340.84 1450.82 334.90 1449.68 326.82
  Q 1447.96 314.58 1450.66 304.09
  C 1453.43 293.35 1457.85 280.29 1456.74 269.49
  C 1454.94 251.95 1446.22 232.99 1437.11 217.68
  C 1426.96 200.63 1417.33 187.49 1399.75 177.96
  C 1392.17 173.84 1385.75 174.30 1375.81 174.20
  Q 1369.88 174.14 1361.39 170.40
  C 1351.56 166.08 1341.35 160.76 1330.54 159.75
  C 1321.50 158.91 1311.75 162.20 1303.99 159.36
  C 1298.53 157.36 1295.22 147.48 1288.07 152.09
  C 1284.59 154.33 1282.32 156.45 1278.29 156.74
  C 1251.61 158.61 1225.13 154.14 1198.49 157.26
  C 1189.80 158.28 1197.68 165.82 1201.50 166.78
  C 1207.52 168.30 1213.78 167.75 1219.60 170.56
  C 1229.12 175.14 1238.14 182.02 1245.00 190.01
  C 1250.95 196.94 1255.43 206.59 1259.71 215.19
  A 2.53 2.53 0.0 0 0 1263.26 216.25
  C 1267.37 213.82 1271.56 210.74 1276.22 210.11
  C 1280.45 209.54 1285.14 209.88 1288.23 213.04
  C 1291.56 216.44 1290.21 220.08 1287.25 223.02
  C 1275.78 234.44 1263.29 244.16 1249.60 251.77
  C 1229.50 262.95 1238.36 285.79 1243.28 303.36
  C 1246.52 314.98 1249.42 328.63 1250.99 339.92
  C 1253.13 355.33 1253.23 370.73 1255.06 386.13
  C 1255.73 391.74 1257.01 395.07 1259.25 400.05
  C 1263.97 410.52 1260.65 420.87 1262.88 431.80
  C 1263.52 434.91 1265.76 437.91 1266.60 440.93
  C 1271.68 459.37 1274.56 477.71 1274.99 497.00
  C 1276.01 543.00 1274.38 585.70 1275.78 634.97
  C 1275.91 639.57 1275.69 642.06 1278.67 644.78
  C 1283.05 648.78 1285.42 651.05 1284.04 657.52
  Q 1282.98 662.53 1281.13 667.30
  Q 1270.49 694.77 1259.25 722.00
  Q 1255.97 729.95 1252.68 741.76
  C 1250.69 748.90 1251.06 754.83 1257.30 758.99
  Q 1279.31 773.66 1293.38 784.89
  C 1313.32 800.81 1324.02 826.11 1334.25 849.18
  Q 1334.57 849.91 1335.04 849.26
  C 1337.33 846.05 1337.59 838.69 1337.68 835.32
  C 1337.95 825.65 1337.66 815.68 1338.54 806.08
  C 1339.00 801.02 1339.20 797.43 1342.31 793.90
  C 1343.54 792.50 1344.05 790.91 1344.23 789.25
  Q 1346.28 770.16 1344.47 752.50
  C 1343.90 746.98 1340.20 743.64 1338.61 739.61
  C 1335.50 731.73 1337.79 725.86 1340.93 718.33
  Q 1342.38 714.85 1342.73 711.45
  Q 1344.56 693.88 1343.12 676.23
  Q 1342.81 672.46 1341.31 670.08
  C 1339.01 666.43 1332.55 662.53 1335.37 657.65
  A 1.55 1.53 3.1 0 1 1336.07 657.03
  C 1338.04 656.17 1344.12 653.92 1344.25 651.49
  Q 1344.70 643.06 1342.56 632.74
  Q 1339.28 616.88 1337.66 600.76
  Q 1334.54 569.63 1331.74 538.47
  C 1331.08 531.05 1329.31 523.41 1328.18 515.82
  Q 1327.04 508.18 1327.99 505.49
  Q 1334.77 486.29 1342.51 467.92
  A 2.02 2.02 0.0 0 1 1345.95 467.44
  C 1356.03 479.96 1371.58 497.46 1371.93 514.04
  C 1372.18 525.62 1366.84 539.63 1367.60 552.99
  C 1367.93 558.82 1374.90 557.14 1376.78 562.01
  Q 1396.56 613.12 1399.74 670.50
  C 1401.27 698.01 1404.61 723.10 1392.26 747.00
  C 1384.56 761.89 1380.20 770.71 1376.72 784.73
  C 1374.97 791.79 1380.45 793.39 1386.01 793.48
  Q 1397.81 793.67 1401.03 794.20
  C 1416.81 796.81 1422.68 812.51 1433.93 821.76
  Q 1442.03 828.41 1452.48 833.51
  C 1458.75 836.57 1466.14 838.38 1468.78 829.49
  C 1475.23 807.72 1477.84 784.67 1480.56 762.18
  Q 1481.76 752.29 1482.19 742.26
  Q 1483.22 718.68 1483.74 695.10
  Q 1483.81 692.26 1483.50 687.93
  C 1483.04 681.32 1484.10 670.50 1478.04 665.82
  C 1475.34 663.72 1470.50 664.10 1467.00 663.64
  A 3.30 3.30 0.0 0 1 1464.52 661.90
  Z
  M 454.41 458.79
  Q 458.13 467.70 454.48 476.82
  Q 454.28 477.33 453.81 477.60
  L 448.98 480.44
  Q 448.48 480.74 448.43 481.32
  C 446.25 503.74 451.56 525.17 449.27 544.51
  A 1.27 1.25 76.6 0 1 448.73 545.40
  Q 446.57 546.87 443.93 547.13
  Q 443.42 547.18 443.01 547.49
  C 437.48 551.58 441.33 556.45 441.24 561.59
  C 441.13 568.22 440.88 574.05 441.56 581.07
  C 441.83 583.77 442.40 590.68 439.03 591.79
  Q 436.60 592.58 435.23 593.56
  Q 434.77 593.89 434.73 594.45
  C 433.88 606.20 434.28 618.05 434.26 629.82
  C 434.24 640.13 433.28 654.40 434.93 667.06
  C 435.88 674.34 446.56 674.02 449.72 680.16
  C 451.35 683.34 450.80 689.88 446.16 690.85
  Q 438.94 692.35 440.58 700.43
  Q 441.80 706.41 441.25 712.45
  C 440.86 716.68 434.92 717.18 434.48 721.00
  Q 432.27 739.90 435.31 760.94
  Q 435.62 763.08 436.57 764.29
  Q 436.93 764.75 437.49 764.58
  C 442.78 762.97 444.13 768.43 442.36 772.00
  C 441.17 774.40 438.08 775.27 435.71 776.48
  A 1.40 1.37 87.2 0 0 435.06 777.21
  C 433.13 782.15 434.39 791.48 434.47 796.97
  C 434.60 806.82 426.96 814.06 418.63 818.45
  C 409.57 823.24 400.02 827.47 393.39 835.62
  C 390.85 838.75 395.75 844.55 398.15 846.62
  C 401.88 849.82 406.10 848.26 410.52 847.16
  C 416.87 845.57 425.50 846.58 432.26 847.35
  C 447.61 849.09 457.97 847.11 468.15 834.97
  C 475.12 826.64 480.75 819.62 491.55 817.77
  C 500.57 816.23 513.72 817.10 522.29 821.59
  Q 528.70 824.95 535.74 825.23
  C 579.62 827.01 623.93 823.88 668.16 826.03
  A 4.15 4.12 75.4 0 1 671.49 828.00
  C 672.47 829.61 675.48 835.30 677.75 835.52
  C 696.27 837.32 715.16 834.93 731.94 835.35
  Q 738.74 835.52 742.97 837.73
  C 748.33 840.53 757.77 846.61 763.93 844.94
  C 777.33 841.30 774.15 846.57 780.40 854.18
  Q 780.74 854.60 781.27 854.52
  C 782.40 854.35 783.52 854.75 784.42 854.76
  Q 814.05 854.86 850.06 853.81
  Q 852.58 853.74 854.37 852.45
  A 1.37 1.37 0.0 0 0 854.92 851.64
  C 856.05 846.99 850.06 839.61 847.29 836.21
  C 842.13 829.87 842.71 819.99 843.24 811.26
  Q 844.10 796.99 845.34 782.74
  C 845.91 776.26 847.34 764.22 842.23 759.91
  A 1.71 1.69 -21.6 0 0 841.36 759.54
  Q 832.55 758.53 823.68 758.34
  C 782.71 757.48 741.75 758.79 700.75 758.05
  Q 678.32 757.64 656.05 760.29
  C 647.29 761.33 643.38 769.34 635.75 771.04
  Q 616.58 775.33 597.54 771.36
  C 588.68 769.52 576.84 761.31 568.04 766.07
  C 563.40 768.58 559.51 776.14 554.52 777.56
  Q 534.05 783.37 511.56 779.23
  C 508.04 778.58 507.62 777.26 508.33 773.83
  Q 509.12 770.04 508.48 766.14
  A 0.98 0.97 -88.7 0 0 507.73 765.35
  L 502.31 764.22
  A 1.32 1.32 0.0 0 1 501.30 762.63
  C 502.63 756.93 509.01 756.33 509.83 749.65
  C 511.41 736.81 508.23 724.49 509.67 713.24
  Q 509.75 712.67 510.28 712.45
  L 514.58 710.73
  A 2.26 2.25 79.0 0 0 516.00 708.62
  C 515.95 700.49 513.78 692.82 513.68 684.92
  A 3.33 3.32 -6.3 0 1 516.33 681.62
  C 523.88 680.05 524.08 670.97 521.47 665.29
  A 1.27 1.25 -3.1 0 0 520.70 664.61
  C 515.09 662.80 515.67 657.75 517.23 653.26
  C 519.67 646.28 530.74 644.35 529.79 637.25
  Q 528.15 624.95 528.31 613.99
  C 528.38 608.98 521.41 607.28 520.65 601.83
  C 519.56 594.04 520.44 585.70 519.92 577.77
  C 519.61 573.15 520.29 570.91 522.30 567.06
  Q 525.97 560.02 526.42 551.26
  C 528.32 514.68 530.72 477.90 527.20 441.34
  C 526.53 434.41 515.97 432.18 515.41 425.75
  Q 510.18 365.92 514.63 306.00
  Q 514.67 305.44 515.21 305.28
  L 519.89 303.95
  A 1.49 1.48 5.2 0 0 520.79 303.21
  Q 521.25 302.28 521.48 301.00
  Q 523.72 288.65 520.25 277.24
  C 519.41 274.50 515.97 274.16 513.60 273.24
  A 1.62 1.56 83.0 0 1 512.86 272.64
  Q 508.55 266.13 510.05 258.34
  C 510.64 255.22 513.96 255.61 516.10 254.31
  Q 516.58 254.02 516.61 253.46
  C 516.99 245.65 516.24 236.88 516.30 230.16
  C 516.39 219.86 518.14 206.95 512.77 197.58
  Q 511.17 194.78 506.91 190.68
  Q 499.67 183.71 493.66 175.60
  Q 492.67 174.26 489.01 172.15
  Q 488.62 171.92 488.18 171.94
  L 477.61 172.31
  A 1.88 1.86 62.0 0 1 476.45 171.95
  C 471.31 168.15 470.07 161.51 463.44 160.60
  C 450.10 158.78 437.33 163.66 424.02 161.82
  A 1.07 1.05 80.3 0 1 423.24 161.26
  L 420.27 155.43
  Q 420.08 155.06 419.73 154.84
  C 412.57 150.23 406.13 153.34 403.38 160.73
  Q 400.44 168.62 407.82 174.70
  Q 421.81 186.25 430.28 196.45
  Q 433.93 200.86 438.75 201.52
  C 447.41 202.70 445.83 206.69 448.12 213.27
  C 449.54 217.32 453.57 218.35 454.60 222.62
  Q 457.41 234.26 454.21 245.94
  C 453.50 248.54 449.09 252.11 447.62 255.24
  C 445.59 259.53 443.96 264.16 449.06 267.20
  Q 450.98 268.35 452.67 269.78
  Q 453.06 270.11 453.16 270.61
  C 455.34 281.43 454.59 293.07 454.40 304.07
  C 454.22 314.74 438.48 312.59 438.78 321.06
  Q 439.42 339.29 440.48 357.48
  Q 440.83 363.50 446.44 364.47
  A 0.98 0.97 3.1 0 1 447.25 365.36
  C 449.04 395.09 446.09 424.66 447.91 454.38
  Q 447.94 454.91 448.41 455.15
  L 453.44 457.75
  Q 454.11 458.09 454.41 458.79
  Z
  M 1089.53 578.23
  Q 1089.38 577.12 1089.15 576.06
  Q 1089.04 575.59 1089.17 575.13
  Q 1090.29 571.08 1093.87 568.94
  Q 1094.32 568.68 1094.79 568.90
  C 1116.52 579.04 1139.68 589.90 1158.30 605.20
  C 1175.72 619.52 1160.55 650.71 1153.17 667.00
  C 1146.02 682.82 1115.35 709.34 1138.05 726.43
  Q 1141.20 728.79 1150.88 736.85
  C 1165.65 749.14 1155.92 761.38 1160.49 776.41
  C 1165.84 794.01 1173.84 808.82 1174.73 826.86
  C 1175.16 835.55 1173.44 847.62 1174.33 858.34
  Q 1174.38 858.89 1174.88 859.11
  C 1179.70 861.28 1186.04 858.81 1190.18 856.58
  C 1196.59 853.12 1194.01 834.00 1193.88 827.84
  C 1193.82 824.66 1198.26 821.19 1200.21 818.96
  A 1.74 1.67 70.4 0 0 1200.61 818.07
  C 1201.71 809.88 1199.23 802.06 1202.26 794.54
  Q 1206.96 782.84 1213.48 768.89
  C 1219.62 755.75 1215.84 744.52 1216.53 731.81
  C 1216.91 724.98 1223.08 724.07 1226.48 719.50
  C 1230.09 714.66 1230.68 704.52 1231.97 698.84
  C 1234.11 689.40 1238.13 679.90 1241.98 670.72
  C 1243.08 668.09 1245.01 666.36 1246.73 664.09
  Q 1247.05 663.68 1247.08 663.16
  Q 1247.56 656.02 1247.65 653.32
  Q 1249.71 588.80 1246.55 524.33
  C 1246.18 516.83 1243.22 508.67 1242.14 502.82
  Q 1238.61 483.66 1238.69 461.58
  C 1238.71 454.94 1240.13 440.58 1238.78 431.50
  C 1237.57 423.44 1232.72 417.29 1228.89 410.59
  C 1224.84 403.49 1227.66 397.13 1229.28 390.26
  C 1231.01 382.89 1224.25 383.82 1222.34 379.02
  Q 1219.27 371.33 1216.79 363.44
  C 1211.25 345.83 1211.38 327.38 1204.82 309.94
  C 1200.43 298.26 1195.17 286.10 1192.01 274.81
  Q 1188.44 262.05 1185.99 249.00
  C 1184.30 239.93 1187.48 231.20 1183.86 222.26
  C 1177.72 207.10 1161.92 195.08 1160.94 178.07
  Q 1160.31 167.00 1159.78 163.75
  C 1158.24 154.18 1147.92 151.95 1140.10 155.42
  C 1125.78 161.77 1134.99 173.98 1132.53 184.57
  C 1129.56 197.37 1110.21 196.40 1111.05 211.05
  C 1111.33 215.90 1113.27 224.59 1112.00 229.00
  C 1109.04 239.31 1100.77 248.29 1096.60 258.45
  C 1094.33 263.98 1092.72 270.31 1089.72 275.32
  C 1086.67 280.41 1082.25 284.61 1082.98 290.99
  C 1083.62 296.62 1087.17 302.51 1081.91 308.61
  Q 1079.55 311.36 1077.15 314.08
  C 1063.19 329.92 1066.99 353.25 1064.81 372.49
  C 1063.44 384.58 1048.90 380.90 1051.03 396.33
  C 1051.57 400.20 1051.91 404.11 1052.28 408.00
  C 1053.45 420.22 1040.68 426.20 1037.99 437.00
  Q 1033.39 455.50 1036.86 475.36
  Q 1036.88 475.46 1037.00 476.68
  C 1037.54 482.21 1047.78 479.08 1046.09 484.84
  Q 1045.96 485.28 1045.53 485.43
  C 1042.71 486.43 1037.29 486.40 1036.70 490.43
  Q 1035.70 497.36 1036.57 503.69
  C 1037.27 508.76 1037.17 516.39 1033.60 520.30
  C 1031.53 522.58 1029.51 524.11 1028.75 527.19
  C 1027.11 533.86 1029.38 542.34 1029.65 549.04
  C 1029.97 556.69 1028.72 565.42 1027.72 573.51
  C 1026.88 580.25 1033.40 589.08 1025.53 594.25
  C 1023.43 595.63 1018.56 597.66 1015.20 599.23
  C 1001.78 605.54 1014.23 620.10 1005.85 629.25
  C 1000.33 635.28 991.01 634.92 990.39 645.00
  C 989.63 657.24 990.40 674.03 1008.39 667.08
  C 1020.22 662.51 1031.22 656.02 1043.93 650.67
  C 1055.25 645.91 1063.97 645.48 1076.56 646.74
  C 1084.23 647.51 1094.06 648.85 1100.98 646.49
  C 1108.86 643.81 1116.49 631.39 1107.50 625.19
  C 1099.26 619.51 1090.21 615.53 1091.52 603.75
  C 1092.46 595.28 1095.99 586.24 1089.90 579.07
  Q 1089.59 578.70 1089.53 578.23
  Z
  M 885.45 270.74
  L 879.66 272.75
  A 1.00 0.98 -1.9 0 0 879.03 273.41
  Q 877.80 277.58 878.47 280.03
  Q 881.38 290.64 880.00 302.74
  Q 879.38 308.17 881.01 314.54
  A 1.64 1.62 14.4 0 0 881.49 315.34
  Q 887.20 320.59 893.22 315.76
  C 894.29 314.90 895.66 313.15 897.19 312.36
  Q 903.83 308.90 910.45 305.42
  C 916.03 302.48 918.24 289.53 918.58 284.50
  C 919.46 271.49 919.63 261.38 922.78 249.80
  Q 925.44 240.01 926.74 236.49
  C 932.59 220.68 945.52 218.24 960.94 219.77
  A 4.15 4.13 78.0 0 1 964.14 221.86
  C 967.39 227.60 968.81 232.33 977.00 230.95
  C 983.27 229.89 993.57 225.92 998.89 230.41
  Q 999.27 230.72 999.21 231.21
  C 997.81 243.64 997.63 256.42 990.98 267.45
  C 987.43 273.33 981.13 280.93 977.23 287.90
  C 968.96 302.69 958.11 323.32 957.50 340.45
  C 957.27 346.93 957.91 354.98 956.64 360.86
  C 954.31 371.74 941.25 376.64 939.46 387.51
  C 938.44 393.68 942.50 403.22 939.83 409.51
  C 937.98 413.89 932.53 414.64 930.66 418.73
  C 928.02 424.49 935.23 429.13 936.20 433.31
  C 938.02 441.06 933.34 450.62 928.47 456.40
  C 927.09 458.04 926.41 459.64 925.60 461.51
  Q 915.82 484.11 907.89 507.42
  C 896.79 540.03 897.70 577.87 902.60 612.41
  C 903.70 620.18 909.21 625.68 910.57 633.42
  C 912.52 644.51 911.69 655.53 910.56 667.23
  Q 910.51 667.73 910.22 668.14
  C 903.11 678.09 909.69 693.97 906.29 705.54
  A 0.64 0.64 0.0 0 1 905.51 705.97
  L 900.98 704.73
  A 1.05 1.05 0.0 0 0 899.68 705.50
  C 898.34 711.17 900.70 717.96 900.48 724.00
  C 900.30 728.82 894.62 730.11 891.25 731.77
  C 886.69 734.01 885.04 738.65 886.54 743.52
  Q 887.29 745.96 889.78 744.91
  A 0.65 0.65 0.0 0 1 890.61 745.22
  C 892.74 749.35 890.19 755.47 887.64 758.75
  A 1.26 1.24 16.0 0 1 886.77 759.22
  L 881.27 759.67
  A 0.79 0.78 -88.6 0 0 880.56 760.36
  C 879.01 773.94 878.02 787.35 880.51 800.95
  A 1.59 1.57 -73.5 0 0 880.98 801.83
  C 887.06 807.68 898.88 806.16 906.28 803.45
  C 910.20 802.01 913.83 798.48 918.28 797.46
  Q 924.85 795.95 931.25 795.99
  Q 948.65 796.12 963.19 795.41
  Q 968.27 795.16 973.05 793.57
  C 978.23 791.86 980.95 786.67 985.81 784.51
  C 993.97 780.89 1006.97 782.25 1015.20 784.54
  Q 1018.69 785.52 1018.45 789.62
  A 1.23 1.22 -68.3 0 0 1018.87 790.61
  Q 1019.99 791.59 1022.25 791.55
  C 1047.74 791.10 1073.15 789.95 1098.67 790.54
  C 1103.96 790.67 1107.29 788.17 1107.93 782.92
  C 1110.25 763.57 1109.37 743.86 1108.24 723.99
  C 1108.03 720.43 1104.28 716.61 1103.42 712.91
  C 1102.51 708.98 1100.24 696.60 1108.48 698.60
  A 1.04 1.03 30.4 0 0 1109.44 698.36
  Q 1112.07 695.93 1111.19 692.14
  C 1110.42 688.83 1108.48 676.92 1105.20 675.77
  C 1097.55 673.11 1085.47 676.04 1076.62 675.92
  C 1072.63 675.86 1071.74 673.98 1070.21 670.80
  Q 1068.58 667.44 1066.03 669.51
  C 1062.48 672.39 1061.52 678.64 1057.26 681.69
  Q 1051.95 685.50 1045.44 688.69
  Q 1021.83 700.28 999.72 709.43
  Q 991.64 712.77 982.82 719.28
  C 977.84 722.95 982.07 731.03 979.57 735.88
  Q 979.34 736.32 978.90 736.54
  C 968.65 741.59 953.74 740.84 942.41 739.13
  C 936.68 738.27 936.69 731.04 938.52 727.12
  C 941.39 721.01 945.48 714.73 947.23 708.24
  C 952.48 688.72 968.46 674.97 967.53 653.50
  C 967.06 642.81 965.69 630.02 968.44 619.67
  C 971.18 609.31 979.67 601.42 981.18 590.69
  C 984.59 566.46 977.47 542.26 981.70 517.98
  C 983.04 510.27 989.76 506.62 994.99 501.99
  C 1002.90 494.98 999.03 487.31 998.73 479.00
  C 998.43 470.79 1006.66 468.92 1008.58 461.76
  Q 1012.45 447.24 1016.21 432.67
  C 1017.48 427.72 1022.73 423.65 1023.17 419.18
  C 1024.59 404.52 1023.00 389.45 1022.51 374.75
  Q 1022.01 359.66 1023.43 352.48
  C 1024.64 346.34 1029.92 339.73 1031.83 333.63
  C 1035.18 322.92 1034.72 310.32 1035.77 299.13
  C 1036.07 295.96 1037.06 292.92 1037.88 289.85
  A 3.53 3.50 -0.2 0 1 1040.37 287.36
  C 1043.18 286.61 1049.00 286.19 1049.86 282.53
  C 1051.45 275.82 1049.41 269.46 1049.64 262.75
  C 1050.10 249.09 1066.38 253.40 1067.26 240.75
  Q 1067.59 235.93 1067.94 221.58
  C 1068.11 214.88 1072.24 210.84 1076.36 206.26
  C 1081.23 200.84 1084.21 193.95 1087.78 186.81
  Q 1091.66 179.03 1091.79 170.97
  C 1091.92 162.80 1080.95 161.93 1075.20 161.87
  Q 1031.57 161.47 987.94 162.27
  C 952.14 162.92 916.91 162.46 890.81 162.83
  C 888.03 162.87 886.43 165.06 886.21 167.80
  Q 885.51 176.54 885.86 188.32
  C 886.65 214.72 888.13 241.09 886.51 267.50
  Q 886.44 268.77 886.10 270.04
  A 1.02 0.99 88.5 0 1 885.45 270.74
  Z
  M 230.09 848.43
  C 232.67 848.91 239.31 838.94 244.29 838.49
  C 250.52 837.93 252.06 842.96 254.59 847.30
  Q 254.86 847.75 255.34 847.97
  C 260.15 850.15 262.42 848.41 266.46 845.10
  C 273.78 839.13 282.79 841.30 291.50 839.85
  C 293.58 839.51 295.18 838.25 297.09 837.37
  C 302.48 834.89 307.62 828.86 313.69 823.18
  Q 334.05 804.16 362.55 793.94
  Q 363.04 793.76 363.33 793.32
  C 368.95 784.74 369.56 772.99 371.05 763.07
  C 372.59 752.91 374.39 744.80 379.07 737.07
  C 388.02 722.29 397.98 709.41 398.58 691.26
  C 398.87 682.50 397.12 670.20 396.93 659.38
  C 396.83 653.73 396.49 648.38 399.29 644.83
  C 403.27 639.77 406.93 636.94 406.82 630.00
  Q 406.45 606.73 406.04 547.04
  C 406.01 542.69 405.61 538.26 405.33 533.88
  C 404.62 522.90 392.10 525.45 391.08 514.94
  C 389.71 500.88 391.89 486.57 393.38 472.14
  C 394.22 464.00 394.62 455.32 393.01 448.50
  C 390.35 437.27 373.96 439.18 373.35 426.40
  C 372.94 417.67 383.39 402.73 369.98 398.40
  C 364.17 396.52 357.31 396.82 351.20 395.69
  C 341.47 393.89 349.87 382.69 353.05 378.89
  C 358.07 372.88 363.16 367.06 367.49 360.64
  C 384.23 335.83 403.90 308.76 401.39 277.07
  Q 399.49 253.22 397.03 229.41
  C 395.42 213.81 387.72 201.28 376.18 190.59
  C 369.67 184.56 358.80 183.69 350.55 181.09
  C 341.33 178.19 340.31 164.77 331.77 164.01
  C 289.71 160.26 246.80 163.09 204.74 165.80
  Q 202.97 165.92 199.64 165.90
  C 194.13 165.87 189.29 169.07 183.96 170.32
  C 172.28 173.07 149.48 164.94 141.74 176.17
  Q 132.43 189.67 143.06 202.36
  C 151.53 212.48 163.11 220.42 173.18 228.83
  Q 173.50 229.11 173.93 229.07
  L 179.91 228.58
  A 2.91 2.91 0.0 0 1 182.93 230.64
  C 184.31 235.20 184.47 243.66 180.17 247.01
  C 178.09 248.63 174.46 250.14 174.53 253.45
  C 175.40 293.47 174.51 331.77 173.37 375.18
  C 173.21 381.29 171.73 392.82 177.05 394.58
  C 184.90 397.17 184.19 409.22 182.53 415.31
  C 180.50 422.82 177.06 430.84 176.83 438.50
  Q 176.27 456.83 177.44 477.25
  Q 177.64 480.79 179.71 484.87
  C 182.79 490.98 180.98 494.85 180.58 501.05
  C 180.14 507.80 180.37 512.55 175.95 518.91
  A 1.76 1.76 0.0 0 0 175.64 519.84
  Q 173.96 578.06 174.35 644.81
  Q 174.42 657.42 175.89 668.96
  Q 177.72 683.42 177.93 686.59
  C 180.21 720.40 177.81 755.48 174.39 789.15
  Q 174.06 792.41 172.73 796.15
  C 170.24 803.12 169.93 812.20 169.00 817.26
  C 167.18 827.17 154.93 832.47 146.11 833.48
  C 141.55 834.00 138.41 838.64 142.27 842.02
  C 148.78 847.71 162.82 848.07 171.00 848.01
  Q 189.17 847.88 207.31 846.83
  Q 218.15 846.21 230.09 848.43
  Z
  M 856.44 206.01
  L 852.23 203.95
  A 1.89 1.87 -76.3 0 1 851.17 202.19
  L 852.21 169.85
  A 1.32 1.32 0.0 0 0 850.93 168.48
  C 810.52 167.16 768.70 168.80 730.00 167.86
  Q 711.33 167.40 692.61 168.20
  C 680.29 168.73 677.63 172.95 677.57 185.28
  Q 677.47 209.60 677.19 234.37
  A 2.67 2.65 -83.1 0 0 679.23 236.99
  L 683.74 238.07
  A 2.57 2.57 0.0 0 1 685.60 239.84
  Q 689.83 254.23 688.16 269.45
  C 687.69 273.66 683.81 276.08 684.69 282.01
  Q 686.57 294.75 689.19 307.34
  C 690.57 313.95 695.84 316.87 694.99 323.75
  Q 694.43 328.30 694.43 331.97
  C 694.43 335.04 696.87 334.55 698.94 334.89
  C 715.25 337.60 704.81 328.28 707.26 322.35
  C 708.00 320.56 711.39 319.29 713.08 318.14
  A 1.14 1.13 -14.8 0 0 713.56 317.32
  C 713.96 312.35 714.48 307.57 714.27 302.51
  Q 713.53 285.28 713.86 271.45
  Q 714.08 262.42 720.69 256.25
  C 724.55 252.65 729.14 257.77 732.98 256.12
  C 737.14 254.33 734.68 245.08 736.32 240.90
  C 740.89 229.26 749.60 220.57 759.48 213.23
  C 764.99 209.13 769.98 208.97 777.64 208.66
  C 793.25 208.01 809.04 208.56 824.70 208.26
  C 827.51 208.21 829.61 207.82 830.01 211.01
  C 831.56 223.44 834.31 239.16 827.04 251.06
  C 817.84 266.10 805.64 278.60 794.22 291.73
  C 787.19 299.82 791.04 308.42 792.16 316.57
  C 793.87 328.89 779.19 348.13 771.47 356.22
  C 767.00 360.90 759.69 365.32 755.79 371.80
  Q 741.64 395.34 737.24 422.50
  C 735.88 430.87 741.60 441.88 731.68 446.67
  C 717.79 453.38 716.58 471.88 711.80 484.15
  C 707.49 495.22 697.53 502.61 692.20 512.89
  Q 689.40 518.31 688.23 524.25
  Q 681.57 558.23 676.96 580.24
  C 675.65 586.51 671.70 606.84 675.58 611.68
  Q 679.53 616.58 682.72 622.03
  C 686.75 628.91 674.70 628.57 673.91 634.25
  C 673.15 639.75 675.64 645.38 681.33 646.77
  Q 684.24 647.49 687.05 648.86
  A 1.54 1.50 0.4 0 1 687.76 649.56
  Q 691.02 656.26 687.47 662.79
  A 1.85 1.80 -0.4 0 1 686.72 663.53
  L 681.28 666.46
  Q 680.94 666.64 680.87 667.02
  C 678.56 680.49 680.57 692.26 678.78 705.15
  Q 678.70 705.80 678.12 706.10
  L 673.09 708.75
  A 2.88 2.88 0.0 0 0 671.56 711.42
  C 671.69 714.32 672.59 720.52 675.25 722.63
  C 677.45 724.37 685.67 723.86 688.19 723.65
  C 701.72 722.50 711.95 720.75 722.34 722.38
  A 4.60 4.56 -10.3 0 1 725.62 724.63
  L 730.19 732.64
  A 3.68 3.68 0.0 0 0 733.39 734.50
  L 746.50 734.50
  A 3.35 3.35 0.0 0 0 749.63 732.34
  L 752.45 724.92
  A 1.76 1.74 -7.4 0 1 753.08 724.11
  Q 760.92 718.76 770.15 721.41
  A 1.53 1.53 0.0 0 1 771.25 722.97
  L 770.93 728.70
  A 0.99 0.98 -88.6 0 0 771.92 729.75
  C 794.06 729.62 816.73 731.59 838.85 729.81
  A 1.76 1.76 0.0 0 0 840.48 728.08
  C 840.52 725.83 840.28 722.26 841.85 720.62
  C 843.87 718.51 851.85 719.50 854.54 719.54
  A 2.72 2.71 3.1 0 0 857.28 717.09
  C 859.55 693.71 857.17 670.06 857.02 646.59
  C 856.98 640.71 857.23 631.77 861.04 627.04
  Q 866.18 620.65 868.83 612.89
  Q 869.00 612.39 869.46 612.13
  C 871.63 610.89 872.35 609.89 872.55 607.26
  Q 873.56 593.88 871.29 580.67
  C 870.35 575.17 859.52 574.77 855.78 575.49
  A 2.88 2.88 0.0 0 0 853.49 577.84
  C 852.78 581.99 853.74 587.04 852.35 590.83
  A 1.56 1.56 0.0 0 1 850.48 591.80
  L 846.90 590.84
  A 1.31 1.31 0.0 0 0 845.25 592.07
  C 845.20 594.81 848.15 601.00 844.75 602.00
  C 837.94 604.02 822.15 594.33 822.54 608.02
  C 822.67 612.70 823.68 616.62 819.66 620.17
  C 813.19 625.89 804.87 630.03 797.53 634.58
  C 786.43 641.46 783.95 652.19 778.92 660.92
  C 773.61 670.13 763.32 673.94 753.00 676.05
  Q 739.69 678.78 727.81 688.31
  C 724.91 690.64 714.58 697.48 710.65 693.61
  C 708.06 691.05 707.52 688.36 708.71 684.74
  C 716.65 660.58 725.22 636.67 733.75 612.72
  C 747.16 575.05 756.11 537.34 776.65 503.20
  C 779.12 499.10 782.37 499.23 786.59 498.33
  Q 787.10 498.22 787.42 497.81
  C 791.40 492.49 787.36 479.35 787.63 472.83
  C 787.97 464.33 794.83 456.73 801.98 452.11
  C 806.15 449.40 812.31 451.64 814.72 448.43
  C 817.86 444.24 817.08 430.99 817.06 425.74
  C 817.00 415.17 819.98 410.38 826.25 400.80
  C 832.03 391.97 831.50 380.04 837.27 370.92
  C 841.47 364.28 846.87 356.79 849.56 349.69
  C 852.54 341.82 851.53 332.16 851.47 323.94
  C 851.44 320.18 853.40 318.13 855.86 315.69
  Q 856.23 315.33 856.28 314.81
  Q 856.59 311.34 856.97 301.00
  C 858.31 264.85 859.40 238.39 857.43 207.48
  Q 857.37 206.45 856.44 206.01
  Z
  M 617.04 453.55
  C 634.56 447.59 623.02 433.54 622.83 420.54
  Q 621.61 337.04 620.28 253.51
  A 1.53 1.51 -27.4 0 1 620.57 252.62
  Q 625.27 246.26 627.30 243.78
  C 633.40 236.34 626.22 231.15 620.94 227.01
  A 1.06 1.04 19.0 0 1 620.54 226.21
  C 620.41 221.80 619.71 216.31 621.82 212.29
  C 624.11 207.95 629.53 199.14 634.34 197.46
  C 637.53 196.35 640.93 196.43 643.48 194.74
  C 648.28 191.57 648.42 187.39 649.97 182.35
  C 651.85 176.21 646.84 171.52 640.97 171.52
  C 619.68 171.51 598.04 172.26 576.81 170.76
  C 563.30 169.82 555.09 169.53 542.08 170.56
  C 537.45 170.93 529.91 173.88 530.09 179.50
  C 530.34 186.99 546.60 194.42 552.66 195.23
  C 561.35 196.40 568.07 196.78 572.21 205.68
  C 573.03 207.45 573.06 209.25 573.11 211.19
  Q 575.17 299.12 576.65 387.06
  C 577.04 409.73 576.61 447.55 577.23 486.94
  Q 577.85 526.50 578.63 566.06
  Q 578.81 574.94 574.83 583.45
  C 571.85 589.81 572.79 602.35 573.12 609.40
  Q 573.14 609.91 573.52 610.26
  C 575.13 611.74 578.71 614.63 579.00 616.83
  C 579.47 620.45 573.79 624.88 573.70 629.61
  Q 573.05 661.86 572.24 694.11
  C 572.15 697.64 567.16 708.04 564.23 710.03
  C 556.06 715.59 537.05 727.95 544.83 740.17
  C 547.71 744.69 550.73 746.05 555.23 742.19
  C 560.12 738.01 565.82 730.65 572.19 730.01
  C 585.94 728.62 600.65 726.31 614.44 727.28
  Q 619.77 727.66 621.43 728.83
  C 625.64 731.78 629.13 734.67 634.25 730.89
  Q 634.65 730.60 635.14 730.63
  Q 641.64 730.99 648.08 732.20
  C 653.38 733.20 657.70 731.73 658.45 725.96
  Q 659.74 715.99 651.45 709.80
  C 642.63 703.22 628.10 696.46 617.02 688.78
  A 1.48 1.48 0.0 0 1 616.40 687.77
  L 613.31 664.54
  Q 613.24 664.03 613.54 663.61
  L 622.01 651.50
  Q 622.27 651.12 622.27 650.66
  Q 622.21 632.26 622.26 613.83
  C 622.27 607.62 617.49 603.45 617.14 597.13
  Q 616.40 583.44 615.69 569.73
  Q 615.67 569.28 615.40 568.92
  L 611.76 564.05
  Q 611.50 563.69 611.50 563.25
  L 611.50 552.46
  Q 611.50 551.89 611.89 551.49
  L 621.98 540.85
  Q 622.38 540.42 622.45 539.83
  C 622.88 535.84 621.71 531.20 620.90 527.28
  C 620.35 524.59 620.65 521.84 620.24 519.02
  C 619.13 511.47 618.45 503.86 617.50 496.29
  C 615.75 482.41 616.47 468.20 616.52 454.28
  Q 616.52 453.73 617.04 453.55
  Z
  M 531.89 968.00
  A 0.39 0.39 0.0 0 1 531.50 967.61
  L 531.50 952.64
  A 0.39 0.39 0.0 0 1 531.89 952.25
  L 555.36 952.25
  A 0.39 0.39 0.0 0 0 555.75 951.86
  L 555.75 943.32
  A 0.39 0.39 0.0 0 0 555.36 942.93
  L 531.89 942.95
  A 0.39 0.39 0.0 0 1 531.50 942.56
  L 531.50 928.89
  A 0.39 0.39 0.0 0 1 531.89 928.50
  L 556.86 928.50
  A 0.39 0.39 0.0 0 0 557.25 928.11
  L 557.25 919.89
  A 0.39 0.39 0.0 0 0 556.86 919.50
  L 517.89 919.49
  A 0.39 0.39 0.0 0 0 517.50 919.88
  L 517.50 977.11
  A 0.39 0.39 0.0 0 0 517.89 977.50
  L 557.87 977.50
  A 0.39 0.39 0.0 0 0 558.26 977.11
  L 558.22 968.39
  A 0.39 0.39 0.0 0 0 557.83 968.00
  L 531.89 968.00
  Z
  M 668.75 948.34
  C 671.97 947.20 675.51 946.90 678.20 944.32
  C 683.53 939.21 683.80 929.26 678.26 924.23
  C 674.28 920.61 667.02 919.46 661.98 919.49
  Q 649.90 919.55 637.54 919.48
  Q 637.00 919.47 637.00 920.01
  L 637.00 977.00
  Q 637.00 977.50 637.50 977.50
  L 650.00 977.50
  Q 650.50 977.50 650.50 977.00
  L 650.50 954.72
  A 0.68 0.67 88.2 0 1 651.13 954.04
  C 656.46 953.70 662.13 954.14 664.38 959.92
  Q 667.62 968.29 670.03 976.96
  A 0.74 0.72 82.1 0 0 670.73 977.50
  L 684.24 977.50
  Q 684.75 977.50 684.59 977.01
  Q 679.67 962.62 676.93 956.05
  Q 674.66 950.60 668.76 948.88
  Q 667.92 948.63 668.75 948.34
  Z
  M 1101.44 929.60
  A 0.98 0.97 -56.8 0 1 1103.34 929.20
  C 1108.71 945.66 1117.51 961.54 1125.14 977.10
  Q 1125.34 977.50 1125.79 977.50
  L 1143.00 977.50
  Q 1143.50 977.50 1143.50 977.00
  L 1143.50 920.03
  Q 1143.50 919.49 1142.97 919.49
  L 1131.75 919.50
  Q 1131.24 919.50 1131.24 920.01
  C 1131.22 935.60 1130.55 951.34 1132.49 966.83
  Q 1132.56 967.36 1132.04 967.51
  L 1131.17 967.77
  Q 1130.57 967.95 1130.39 967.35
  C 1125.99 952.19 1117.96 938.14 1109.01 919.97
  Q 1108.78 919.50 1108.26 919.50
  L 1091.00 919.50
  Q 1090.50 919.50 1090.50 920.00
  L 1090.50 977.00
  Q 1090.50 977.50 1091.00 977.50
  L 1102.22 977.50
  Q 1102.79 977.50 1102.79 976.93
  Q 1102.71 961.84 1102.75 946.84
  C 1102.76 941.16 1101.98 935.34 1101.44 929.60
  Z
  M 1380.00 952.59
  A 0.34 0.34 0.0 0 1 1380.34 952.25
  L 1403.91 952.25
  A 0.34 0.34 0.0 0 0 1404.25 951.91
  L 1404.26 943.24
  A 0.34 0.34 0.0 0 0 1403.92 942.90
  L 1380.34 942.69
  A 0.34 0.34 0.0 0 1 1380.00 942.35
  L 1380.00 928.87
  A 0.34 0.34 0.0 0 1 1380.34 928.53
  L 1405.41 928.49
  A 0.34 0.34 0.0 0 0 1405.75 928.15
  L 1405.75 919.84
  A 0.34 0.34 0.0 0 0 1405.41 919.50
  L 1366.34 919.49
  A 0.34 0.34 0.0 0 0 1366.00 919.83
  L 1366.00 977.16
  A 0.34 0.34 0.0 0 0 1366.34 977.50
  L 1406.41 977.50
  A 0.34 0.34 0.0 0 0 1406.75 977.16
  L 1406.75 968.34
  A 0.34 0.34 0.0 0 0 1406.41 968.00
  L 1380.34 968.00
  A 0.34 0.34 0.0 0 1 1380.00 967.66
  L 1380.00 952.59
  Z
  M 1495.57 929.36
  Q 1497.18 934.87 1499.77 940.34
  Q 1508.46 958.71 1517.28 977.04
  A 0.81 0.81 0.0 0 0 1518.01 977.50
  L 1535.25 977.50
  Q 1535.75 977.50 1535.75 977.00
  L 1535.75 920.08
  Q 1535.75 919.48 1535.15 919.48
  L 1524.02 919.51
  Q 1523.47 919.51 1523.47 920.06
  C 1523.51 935.41 1522.57 951.34 1524.71 966.55
  A 1.08 1.08 0.0 0 1 1522.63 967.07
  C 1516.79 950.78 1508.92 935.51 1501.27 920.00
  Q 1501.02 919.50 1500.47 919.50
  L 1483.25 919.50
  Q 1482.75 919.50 1482.75 920.00
  L 1482.75 977.00
  Q 1482.75 977.50 1483.25 977.50
  L 1494.46 977.50
  Q 1495.03 977.50 1495.03 976.93
  C 1495.01 961.07 1495.42 945.54 1493.66 929.74
  A 0.98 0.98 0.0 0 1 1495.57 929.36
  Z
  M 154.50 952.57
  A 0.32 0.32 0.0 0 1 154.82 952.25
  L 178.43 952.25
  A 0.32 0.32 0.0 0 0 178.75 951.93
  L 178.75 943.07
  A 0.32 0.32 0.0 0 0 178.43 942.75
  L 154.82 942.75
  A 0.32 0.32 0.0 0 1 154.50 942.43
  L 154.50 928.82
  A 0.32 0.32 0.0 0 1 154.82 928.50
  L 179.93 928.50
  A 0.32 0.32 0.0 0 0 180.25 928.18
  L 180.25 919.82
  A 0.32 0.32 0.0 0 0 179.93 919.50
  L 140.82 919.50
  A 0.32 0.32 0.0 0 0 140.50 919.82
  L 140.50 977.18
  A 0.32 0.32 0.0 0 0 140.82 977.50
  L 180.93 977.50
  A 0.32 0.32 0.0 0 0 181.25 977.18
  L 181.25 968.32
  A 0.32 0.32 0.0 0 0 180.93 968.00
  L 154.82 968.00
  A 0.32 0.32 0.0 0 1 154.50 967.68
  L 154.50 952.57
  Z
  M 272.27 975.53
  Q 273.28 952.59 271.11 929.74
  Q 271.03 928.87 272.03 928.81
  A 0.90 0.89 -9.4 0 1 272.96 929.47
  Q 274.45 934.91 276.93 940.14
  Q 285.70 958.65 294.66 977.10
  Q 294.85 977.50 295.29 977.50
  L 312.49 977.50
  Q 312.98 977.50 312.99 977.01
  L 313.03 920.14
  Q 313.03 919.50 312.39 919.50
  L 301.27 919.50
  Q 300.76 919.50 300.76 920.01
  C 300.73 935.17 299.71 951.28 301.98 966.26
  C 302.11 967.13 301.68 967.83 300.76 967.67
  A 1.01 1.00 -5.1 0 1 299.99 967.03
  C 294.25 950.74 286.14 935.39 278.56 919.88
  Q 278.38 919.50 277.95 919.50
  L 260.50 919.50
  Q 260.00 919.50 260.00 920.00
  L 260.00 976.87
  Q 260.00 977.50 260.62 977.50
  L 271.78 977.50
  Q 272.32 977.50 272.48 976.98
  Q 272.59 976.64 272.42 976.28
  Q 272.25 975.92 272.27 975.53
  Z
  M 425.50 929.65
  A 0.32 0.32 0.0 0 1 425.83 929.33
  L 440.17 929.55
  A 0.32 0.32 0.0 0 0 440.50 929.23
  L 440.50 919.82
  A 0.32 0.32 0.0 0 0 440.18 919.50
  L 397.03 919.50
  A 0.32 0.32 0.0 0 0 396.71 919.82
  L 396.73 928.99
  A 0.32 0.32 0.0 0 0 397.05 929.31
  L 411.18 929.22
  A 0.32 0.32 0.0 0 1 411.50 929.54
  L 411.50 977.18
  A 0.32 0.32 0.0 0 0 411.82 977.50
  L 425.18 977.50
  A 0.32 0.32 0.0 0 0 425.50 977.18
  L 425.50 929.65
  Z
  M 783.00 929.70
  A 0.47 0.47 0.0 0 1 783.48 929.23
  L 797.44 929.42
  A 0.47 0.47 0.0 0 0 797.92 928.95
  L 797.92 919.97
  A 0.47 0.47 0.0 0 0 797.45 919.50
  L 754.47 919.50
  A 0.47 0.47 0.0 0 0 754.00 919.97
  L 754.00 928.75
  A 0.47 0.47 0.0 0 0 754.47 929.22
  L 768.53 929.31
  A 0.47 0.47 0.0 0 1 769.00 929.78
  L 769.00 977.03
  A 0.47 0.47 0.0 0 0 769.47 977.50
  L 782.53 977.50
  A 0.47 0.47 0.0 0 0 783.00 977.03
  L 783.00 929.70
  Z
  M 905.93 964.75
  A 0.34 0.34 0.0 0 1 906.25 964.98
  L 910.39 977.27
  A 0.34 0.34 0.0 0 0 910.71 977.50
  L 924.86 977.50
  A 0.34 0.34 0.0 0 0 925.18 977.04
  L 903.48 919.72
  A 0.34 0.34 0.0 0 0 903.17 919.50
  L 885.62 919.50
  A 0.34 0.34 0.0 0 0 885.31 919.72
  L 863.59 977.04
  A 0.34 0.34 0.0 0 0 863.91 977.50
  L 876.82 977.50
  A 0.34 0.34 0.0 0 0 877.14 977.27
  L 881.49 964.98
  A 0.34 0.34 0.0 0 1 881.81 964.75
  L 905.93 964.75
  Z
  M 1010.25 919.77
  A 0.27 0.27 0.0 0 0 1009.98 919.50
  L 996.52 919.50
  A 0.27 0.27 0.0 0 0 996.25 919.77
  L 996.25 977.23
  A 0.27 0.27 0.0 0 0 996.52 977.50
  L 1009.98 977.50
  A 0.27 0.27 0.0 0 0 1010.25 977.23
  L 1010.25 919.77
  Z
  M 1256.25 964.45
  A 1.14 1.13 -45.6 0 1 1253.99 964.48
  C 1253.71 961.48 1253.49 958.54 1252.66 955.59
  Q 1247.62 937.76 1242.34 919.96
  Q 1242.21 919.50 1241.73 919.50
  L 1221.25 919.50
  Q 1220.75 919.50 1220.75 920.00
  L 1220.75 977.00
  Q 1220.75 977.50 1221.25 977.50
  L 1231.42 977.50
  Q 1232.10 977.50 1232.09 976.83
  L 1231.81 925.91
  Q 1231.81 925.61 1232.08 925.47
  L 1232.41 925.29
  A 0.73 0.72 -20.1 0 1 1233.46 925.77
  C 1237.15 943.00 1243.00 960.13 1248.09 977.01
  Q 1248.24 977.50 1248.75 977.50
  L 1259.99 977.50
  Q 1260.48 977.50 1260.61 977.04
  L 1275.71 925.99
  A 0.73 0.73 0.0 0 1 1277.14 926.20
  L 1276.94 976.97
  Q 1276.93 977.50 1277.47 977.50
  L 1288.75 977.50
  Q 1289.25 977.50 1289.25 977.00
  L 1289.25 920.00
  Q 1289.25 919.50 1288.75 919.50
  L 1268.52 919.50
  Q 1268.05 919.50 1267.92 919.95
  Q 1263.31 935.63 1258.71 951.27
  C 1257.37 955.81 1256.58 959.92 1256.25 964.45
  Z
  M 1619.00 929.05
  A 0.35 0.35 0.0 0 0 1619.35 929.40
  L 1633.71 929.33
  A 0.35 0.35 0.0 0 1 1634.06 929.68
  L 1633.72 977.15
  A 0.35 0.35 0.0 0 0 1634.07 977.50
  L 1647.41 977.50
  A 0.35 0.35 0.0 0 0 1647.76 977.15
  L 1647.74 929.75
  A 0.35 0.35 0.0 0 1 1648.09 929.40
  L 1662.40 929.48
  A 0.35 0.35 0.0 0 0 1662.75 929.13
  L 1662.75 919.85
  A 0.35 0.35 0.0 0 0 1662.40 919.50
  L 1619.35 919.50
  A 0.35 0.35 0.0 0 0 1619.00 919.85
  L 1619.00 929.05
  Z"
/>
<path fill="#0066b2" d="
  M 1464.73 170.87
  C 1456.25 163.04 1446.49 156.88 1439.96 147.05
  C 1438.10 144.25 1438.60 142.04 1442.33 141.79
  Q 1456.44 140.83 1470.45 143.09
  C 1473.44 143.57 1477.34 148.26 1481.79 149.10
  C 1485.03 149.71 1488.62 148.87 1492.08 149.28
  Q 1494.77 149.61 1498.08 151.15
  Q 1514.25 158.70 1522.96 164.02
  C 1527.22 166.63 1530.88 172.07 1536.42 175.36
  Q 1538.91 176.84 1547.56 178.76
  C 1551.71 179.68 1555.96 181.47 1560.35 182.45
  C 1565.27 183.54 1568.17 182.67 1573.00 181.51
  C 1575.56 180.89 1578.87 182.44 1581.25 182.81
  C 1584.09 183.26 1586.81 184.35 1589.54 184.92
  Q 1593.16 185.68 1596.60 187.07
  C 1601.19 188.92 1605.04 188.77 1609.10 192.62
  C 1614.66 197.90 1625.82 197.57 1632.96 198.45
  C 1639.29 199.23 1648.15 209.62 1653.27 213.73
  Q 1661.99 220.73 1663.71 222.89
  C 1670.22 231.04 1670.79 241.57 1674.24 251.56
  C 1676.46 257.97 1681.25 263.54 1683.13 270.11
  C 1688.37 288.43 1683.84 309.80 1686.08 331.99
  C 1686.92 340.31 1693.03 345.61 1693.91 353.34
  C 1696.67 377.72 1697.16 400.85 1694.01 424.96
  C 1693.08 432.06 1686.77 436.56 1685.31 443.81
  C 1682.52 457.72 1688.31 472.98 1685.84 486.68
  C 1684.52 494.05 1680.12 504.36 1673.15 508.41
  C 1668.40 511.17 1666.83 518.86 1666.13 524.07
  C 1660.86 562.87 1662.84 599.87 1664.96 641.27
  C 1665.41 650.00 1665.11 658.17 1664.18 666.18
  C 1663.53 671.81 1659.03 675.32 1657.99 680.91
  C 1655.03 696.79 1657.16 713.80 1655.79 729.95
  A 1.72 1.68 66.6 0 1 1655.44 730.86
  C 1653.13 733.89 1651.05 736.47 1650.83 740.50
  C 1649.25 769.22 1646.92 798.66 1620.45 816.46
  C 1607.03 825.48 1587.59 828.44 1573.09 830.35
  C 1569.41 830.83 1566.90 831.98 1564.49 834.47
  C 1556.68 842.56 1555.90 834.51 1550.03 832.06
  C 1545.08 829.99 1536.57 829.47 1532.59 833.89
  Q 1531.61 834.97 1530.73 836.18
  Q 1530.41 836.60 1529.90 836.72
  Q 1513.63 840.56 1496.89 840.46
  Q 1496.36 840.46 1495.99 840.07
  C 1492.55 836.49 1494.29 833.09 1497.78 830.30
  C 1507.77 822.30 1509.23 814.02 1513.41 802.75
  C 1517.16 792.65 1514.58 780.96 1509.29 771.98
  C 1506.40 767.07 1504.03 761.13 1511.05 758.79
  C 1518.52 756.30 1526.96 755.06 1530.77 747.27
  C 1531.64 745.48 1530.70 744.30 1529.11 743.33
  C 1521.47 738.64 1522.45 726.65 1517.95 719.22
  C 1513.37 711.65 1508.87 704.40 1508.99 695.53
  Q 1509.15 683.54 1510.61 673.67
  Q 1514.01 650.80 1515.57 631.62
  C 1516.58 619.17 1520.53 607.22 1517.25 594.44
  C 1513.52 579.88 1501.14 568.12 1497.18 553.05
  C 1494.08 541.29 1498.00 527.82 1495.19 515.92
  Q 1495.07 515.41 1494.69 515.04
  L 1489.20 509.81
  Q 1488.83 509.46 1488.80 508.96
  C 1487.53 490.71 1488.56 476.59 1488.00 459.00
  C 1487.94 457.28 1487.95 456.56 1486.86 455.10
  C 1482.47 449.22 1484.25 434.60 1484.37 427.40
  C 1484.52 418.81 1483.55 409.74 1483.46 400.84
  Q 1483.45 400.34 1483.19 399.92
  Q 1480.90 396.10 1480.76 393.26
  Q 1480.23 381.91 1480.51 361.75
  C 1480.89 334.68 1479.44 307.69 1480.71 280.63
  C 1480.85 277.82 1485.04 276.52 1487.07 275.10
  Q 1487.51 274.79 1487.51 274.25
  C 1487.47 262.94 1486.13 251.58 1485.95 240.22
  C 1485.87 235.18 1489.17 233.78 1489.69 229.56
  Q 1491.11 218.00 1490.86 206.39
  C 1490.65 196.91 1489.01 189.74 1481.01 184.07
  Q 1472.44 177.99 1464.73 170.87
  Z
  M 1565.48 737.75
  C 1569.28 738.22 1572.31 732.09 1573.48 729.49
  Q 1579.88 715.29 1585.94 700.93
  Q 1590.05 691.19 1590.51 680.77
  C 1590.91 671.71 1591.25 666.89 1594.58 660.08
  C 1603.04 642.79 1609.65 626.92 1610.06 607.74
  Q 1611.21 553.41 1611.72 499.06
  Q 1611.81 489.39 1616.55 482.80
  C 1621.38 476.11 1623.87 471.80 1625.20 463.60
  C 1626.35 456.49 1627.39 449.45 1630.64 443.41
  C 1640.61 424.84 1638.03 402.06 1636.70 381.91
  Q 1636.39 377.14 1635.00 372.94
  C 1630.83 360.24 1624.62 344.24 1615.68 335.32
  Q 1610.49 330.13 1605.31 324.92
  C 1601.51 321.09 1599.44 315.99 1595.52 312.37
  Q 1589.57 306.85 1582.06 303.71
  C 1573.06 299.96 1562.94 302.44 1552.78 301.72
  C 1543.41 301.05 1543.81 307.37 1543.91 314.50
  Q 1544.58 362.22 1545.13 409.94
  Q 1545.24 419.84 1546.94 423.77
  C 1552.76 437.19 1556.39 449.07 1557.32 463.11
  A 1.29 1.26 20.5 0 0 1557.72 463.96
  C 1563.59 469.64 1563.55 477.01 1563.45 484.26
  Q 1561.95 596.57 1561.44 727.75
  Q 1561.42 733.25 1564.50 737.19
  Q 1564.88 737.67 1565.48 737.75
  Z"
/>
<path fill="#0066b2" d="
  M 1729.47 170.91
  A 28.04 28.04 0.0 0 1 1701.43 198.95
  A 28.04 28.04 0.0 0 1 1673.39 170.91
  A 28.04 28.04 0.0 0 1 1701.43 142.87
  A 28.04 28.04 0.0 0 1 1729.47 170.91
  Z
  M 1723.76 170.97
  A 22.35 22.35 0.0 0 0 1701.41 148.62
  A 22.35 22.35 0.0 0 0 1679.06 170.97
  A 22.35 22.35 0.0 0 0 1701.41 193.32
  A 22.35 22.35 0.0 0 0 1723.76 170.97
  Z"
/>
<path fill="#000000" d="
  M 1723.76 170.97
  A 22.35 22.35 0.0 0 1 1701.41 193.32
  A 22.35 22.35 0.0 0 1 1679.06 170.97
  A 22.35 22.35 0.0 0 1 1701.41 148.62
  A 22.35 22.35 0.0 0 1 1723.76 170.97
  Z
  M 1709.46 172.01
  C 1715.88 169.15 1717.30 160.93 1710.91 157.11
  C 1706.28 154.34 1697.25 155.08 1689.67 155.35
  Q 1689.25 155.37 1689.25 155.79
  L 1689.25 185.00
  A 0.50 0.50 0.0 0 0 1689.75 185.50
  L 1698.25 185.50
  Q 1698.75 185.50 1698.75 185.00
  L 1698.76 174.17
  A 0.54 0.53 32.7 0 1 1699.78 173.95
  L 1704.89 185.03
  Q 1705.11 185.50 1705.62 185.50
  L 1714.75 185.50
  Q 1715.54 185.50 1715.18 184.79
  L 1709.15 172.88
  A 0.64 0.64 0.0 0 1 1709.46 172.01
  Z"
/>
<path fill="#0066b2" d="
  M 1464.52 661.90
  A 3.30 3.30 0.0 0 0 1467.00 663.64
  C 1470.50 664.10 1475.34 663.72 1478.04 665.82
  C 1484.10 670.50 1483.04 681.32 1483.50 687.93
  Q 1483.81 692.26 1483.74 695.10
  Q 1483.22 718.68 1482.19 742.26
  Q 1481.76 752.29 1480.56 762.18
  C 1477.84 784.67 1475.23 807.72 1468.78 829.49
  C 1466.14 838.38 1458.75 836.57 1452.48 833.51
  Q 1442.03 828.41 1433.93 821.76
  C 1422.68 812.51 1416.81 796.81 1401.03 794.20
  Q 1397.81 793.67 1386.01 793.48
  C 1380.45 793.39 1374.97 791.79 1376.72 784.73
  C 1380.20 770.71 1384.56 761.89 1392.26 747.00
  C 1404.61 723.10 1401.27 698.01 1399.74 670.50
  Q 1396.56 613.12 1376.78 562.01
  C 1374.90 557.14 1367.93 558.82 1367.60 552.99
  C 1366.84 539.63 1372.18 525.62 1371.93 514.04
  C 1371.58 497.46 1356.03 479.96 1345.95 467.44
  A 2.02 2.02 0.0 0 0 1342.51 467.92
  Q 1334.77 486.29 1327.99 505.49
  Q 1327.04 508.18 1328.18 515.82
  C 1329.31 523.41 1331.08 531.05 1331.74 538.47
  Q 1334.54 569.63 1337.66 600.76
  Q 1339.28 616.88 1342.56 632.74
  Q 1344.70 643.06 1344.25 651.49
  C 1344.12 653.92 1338.04 656.17 1336.07 657.03
  A 1.55 1.53 3.1 0 0 1335.37 657.65
  C 1332.55 662.53 1339.01 666.43 1341.31 670.08
  Q 1342.81 672.46 1343.12 676.23
  Q 1344.56 693.88 1342.73 711.45
  Q 1342.38 714.85 1340.93 718.33
  C 1337.79 725.86 1335.50 731.73 1338.61 739.61
  C 1340.20 743.64 1343.90 746.98 1344.47 752.50
  Q 1346.28 770.16 1344.23 789.25
  C 1344.05 790.91 1343.54 792.50 1342.31 793.90
  C 1339.20 797.43 1339.00 801.02 1338.54 806.08
  C 1337.66 815.68 1337.95 825.65 1337.68 835.32
  C 1337.59 838.69 1337.33 846.05 1335.04 849.26
  Q 1334.57 849.91 1334.25 849.18
  C 1324.02 826.11 1313.32 800.81 1293.38 784.89
  Q 1279.31 773.66 1257.30 758.99
  C 1251.06 754.83 1250.69 748.90 1252.68 741.76
  Q 1255.97 729.95 1259.25 722.00
  Q 1270.49 694.77 1281.13 667.30
  Q 1282.98 662.53 1284.04 657.52
  C 1285.42 651.05 1283.05 648.78 1278.67 644.78
  C 1275.69 642.06 1275.91 639.57 1275.78 634.97
  C 1274.38 585.70 1276.01 543.00 1274.99 497.00
  C 1274.56 477.71 1271.68 459.37 1266.60 440.93
  C 1265.76 437.91 1263.52 434.91 1262.88 431.80
  C 1260.65 420.87 1263.97 410.52 1259.25 400.05
  C 1257.01 395.07 1255.73 391.74 1255.06 386.13
  C 1253.23 370.73 1253.13 355.33 1250.99 339.92
  C 1249.42 328.63 1246.52 314.98 1243.28 303.36
  C 1238.36 285.79 1229.50 262.95 1249.60 251.77
  C 1263.29 244.16 1275.78 234.44 1287.25 223.02
  C 1290.21 220.08 1291.56 216.44 1288.23 213.04
  C 1285.14 209.88 1280.45 209.54 1276.22 210.11
  C 1271.56 210.74 1267.37 213.82 1263.26 216.25
  A 2.53 2.53 0.0 0 1 1259.71 215.19
  C 1255.43 206.59 1250.95 196.94 1245.00 190.01
  C 1238.14 182.02 1229.12 175.14 1219.60 170.56
  C 1213.78 167.75 1207.52 168.30 1201.50 166.78
  C 1197.68 165.82 1189.80 158.28 1198.49 157.26
  C 1225.13 154.14 1251.61 158.61 1278.29 156.74
  C 1282.32 156.45 1284.59 154.33 1288.07 152.09
  C 1295.22 147.48 1298.53 157.36 1303.99 159.36
  C 1311.75 162.20 1321.50 158.91 1330.54 159.75
  C 1341.35 160.76 1351.56 166.08 1361.39 170.40
  Q 1369.88 174.14 1375.81 174.20
  C 1385.75 174.30 1392.17 173.84 1399.75 177.96
  C 1417.33 187.49 1426.96 200.63 1437.11 217.68
  C 1446.22 232.99 1454.94 251.95 1456.74 269.49
  C 1457.85 280.29 1453.43 293.35 1450.66 304.09
  Q 1447.96 314.58 1449.68 326.82
  C 1450.82 334.90 1448.43 340.84 1445.08 349.85
  C 1435.43 375.85 1417.55 405.62 1387.64 409.54
  A 2.33 2.32 -81.7 0 0 1385.82 410.90
  C 1384.19 414.53 1382.92 425.86 1390.43 424.05
  Q 1393.42 423.33 1396.48 423.16
  Q 1396.99 423.13 1397.42 423.40
  C 1408.06 429.99 1420.77 438.31 1429.17 449.84
  Q 1429.46 450.24 1429.48 450.73
  C 1429.69 455.09 1424.45 459.15 1427.16 463.08
  Q 1427.50 463.58 1428.10 463.55
  L 1432.43 463.35
  Q 1432.97 463.33 1433.42 463.62
  Q 1434.23 464.16 1434.84 464.92
  C 1442.80 474.88 1445.48 484.80 1446.55 496.95
  C 1448.10 514.67 1446.08 532.56 1447.99 550.35
  C 1448.79 557.80 1451.84 568.85 1460.19 571.13
  C 1466.45 572.83 1466.47 577.43 1466.60 582.69
  Q 1467.29 609.82 1471.64 636.59
  C 1472.54 642.16 1472.27 645.80 1468.61 649.77
  C 1466.11 652.49 1462.60 658.25 1464.52 661.90
  Z
  M 1327.67 400.34
  C 1331.01 402.47 1338.66 402.33 1342.53 402.10
  C 1350.34 401.64 1360.97 392.62 1366.22 387.18
  C 1371.05 382.17 1371.41 376.73 1372.82 370.60
  C 1374.43 363.63 1379.70 358.77 1381.94 352.07
  C 1384.15 345.44 1381.32 332.62 1385.59 328.08
  C 1390.29 323.07 1391.00 302.98 1391.40 295.86
  C 1392.32 279.21 1371.79 259.89 1360.77 249.12
  C 1352.32 240.85 1348.91 230.53 1335.80 227.77
  C 1333.13 227.21 1327.30 225.57 1325.01 227.45
  C 1322.68 229.37 1323.48 238.54 1323.67 242.06
  Q 1324.58 259.21 1323.94 282.18
  C 1323.31 304.83 1324.28 325.09 1324.46 345.44
  C 1324.57 357.29 1323.41 372.60 1323.52 386.23
  C 1323.55 390.49 1323.58 397.72 1327.67 400.34
  Z"
/>
<path fill="#0066b2" d="
  M 453.44 457.75
  L 448.41 455.15
  Q 447.94 454.91 447.91 454.38
  C 446.09 424.66 449.04 395.09 447.25 365.36
  A 0.98 0.97 3.1 0 0 446.44 364.47
  Q 440.83 363.50 440.48 357.48
  Q 439.42 339.29 438.78 321.06
  C 438.48 312.59 454.22 314.74 454.40 304.07
  C 454.59 293.07 455.34 281.43 453.16 270.61
  Q 453.06 270.11 452.67 269.78
  Q 450.98 268.35 449.06 267.20
  C 443.96 264.16 445.59 259.53 447.62 255.24
  C 449.09 252.11 453.50 248.54 454.21 245.94
  Q 457.41 234.26 454.60 222.62
  C 453.57 218.35 449.54 217.32 448.12 213.27
  C 445.83 206.69 447.41 202.70 438.75 201.52
  Q 433.93 200.86 430.28 196.45
  Q 421.81 186.25 407.82 174.70
  Q 400.44 168.62 403.38 160.73
  C 406.13 153.34 412.57 150.23 419.73 154.84
  Q 420.08 155.06 420.27 155.43
  L 423.24 161.26
  A 1.07 1.05 80.3 0 0 424.02 161.82
  C 437.33 163.66 450.10 158.78 463.44 160.60
  C 470.07 161.51 471.31 168.15 476.45 171.95
  A 1.88 1.86 62.0 0 0 477.61 172.31
  L 488.18 171.94
  Q 488.62 171.92 489.01 172.15
  Q 492.67 174.26 493.66 175.60
  Q 499.67 183.71 506.91 190.68
  Q 511.17 194.78 512.77 197.58
  C 518.14 206.95 516.39 219.86 516.30 230.16
  C 516.24 236.88 516.99 245.65 516.61 253.46
  Q 516.58 254.02 516.10 254.31
  C 513.96 255.61 510.64 255.22 510.05 258.34
  Q 508.55 266.13 512.86 272.64
  A 1.62 1.56 83.0 0 0 513.60 273.24
  C 515.97 274.16 519.41 274.50 520.25 277.24
  Q 523.72 288.65 521.48 301.00
  Q 521.25 302.28 520.79 303.21
  A 1.49 1.48 5.2 0 1 519.89 303.95
  L 515.21 305.28
  Q 514.67 305.44 514.63 306.00
  Q 510.18 365.92 515.41 425.75
  C 515.97 432.18 526.53 434.41 527.20 441.34
  C 530.72 477.90 528.32 514.68 526.42 551.26
  Q 525.97 560.02 522.30 567.06
  C 520.29 570.91 519.61 573.15 519.92 577.77
  C 520.44 585.70 519.56 594.04 520.65 601.83
  C 521.41 607.28 528.38 608.98 528.31 613.99
  Q 528.15 624.95 529.79 637.25
  C 530.74 644.35 519.67 646.28 517.23 653.26
  C 515.67 657.75 515.09 662.80 520.70 664.61
  A 1.27 1.25 -3.1 0 1 521.47 665.29
  C 524.08 670.97 523.88 680.05 516.33 681.62
  A 3.33 3.32 -6.3 0 0 513.68 684.92
  C 513.78 692.82 515.95 700.49 516.00 708.62
  A 2.26 2.25 79.0 0 1 514.58 710.73
  L 510.28 712.45
  Q 509.75 712.67 509.67 713.24
  C 508.23 724.49 511.41 736.81 509.83 749.65
  C 509.01 756.33 502.63 756.93 501.30 762.63
  A 1.32 1.32 0.0 0 0 502.31 764.22
  L 507.73 765.35
  A 0.98 0.97 -88.7 0 1 508.48 766.14
  Q 509.12 770.04 508.33 773.83
  C 507.62 777.26 508.04 778.58 511.56 779.23
  Q 534.05 783.37 554.52 777.56
  C 559.51 776.14 563.40 768.58 568.04 766.07
  C 576.84 761.31 588.68 769.52 597.54 771.36
  Q 616.58 775.33 635.75 771.04
  C 643.38 769.34 647.29 761.33 656.05 760.29
  Q 678.32 757.64 700.75 758.05
  C 741.75 758.79 782.71 757.48 823.68 758.34
  Q 832.55 758.53 841.36 759.54
  A 1.71 1.69 -21.6 0 1 842.23 759.91
  C 847.34 764.22 845.91 776.26 845.34 782.74
  Q 844.10 796.99 843.24 811.26
  C 842.71 819.99 842.13 829.87 847.29 836.21
  C 850.06 839.61 856.05 846.99 854.92 851.64
  A 1.37 1.37 0.0 0 1 854.37 852.45
  Q 852.58 853.74 850.06 853.81
  Q 814.05 854.86 784.42 854.76
  C 783.52 854.75 782.40 854.35 781.27 854.52
  Q 780.74 854.60 780.40 854.18
  C 774.15 846.57 777.33 841.30 763.93 844.94
  C 757.77 846.61 748.33 840.53 742.97 837.73
  Q 738.74 835.52 731.94 835.35
  C 715.16 834.93 696.27 837.32 677.75 835.52
  C 675.48 835.30 672.47 829.61 671.49 828.00
  A 4.15 4.12 75.4 0 0 668.16 826.03
  C 623.93 823.88 579.62 827.01 535.74 825.23
  Q 528.70 824.95 522.29 821.59
  C 513.72 817.10 500.57 816.23 491.55 817.77
  C 480.75 819.62 475.12 826.64 468.15 834.97
  C 457.97 847.11 447.61 849.09 432.26 847.35
  C 425.50 846.58 416.87 845.57 410.52 847.16
  C 406.10 848.26 401.88 849.82 398.15 846.62
  C 395.75 844.55 390.85 838.75 393.39 835.62
  C 400.02 827.47 409.57 823.24 418.63 818.45
  C 426.96 814.06 434.60 806.82 434.47 796.97
  C 434.39 791.48 433.13 782.15 435.06 777.21
  A 1.40 1.37 87.2 0 1 435.71 776.48
  C 438.08 775.27 441.17 774.40 442.36 772.00
  C 444.13 768.43 442.78 762.97 437.49 764.58
  Q 436.93 764.75 436.57 764.29
  Q 435.62 763.08 435.31 760.94
  Q 432.27 739.90 434.48 721.00
  C 434.92 717.18 440.86 716.68 441.25 712.45
  Q 441.80 706.41 440.58 700.43
  Q 438.94 692.35 446.16 690.85
  C 450.80 689.88 451.35 683.34 449.72 680.16
  C 446.56 674.02 435.88 674.34 434.93 667.06
  C 433.28 654.40 434.24 640.13 434.26 629.82
  C 434.28 618.05 433.88 606.20 434.73 594.45
  Q 434.77 593.89 435.23 593.56
  Q 436.60 592.58 439.03 591.79
  C 442.40 590.68 441.83 583.77 441.56 581.07
  C 440.88 574.05 441.13 568.22 441.24 561.59
  C 441.33 556.45 437.48 551.58 443.01 547.49
  Q 443.42 547.18 443.93 547.13
  Q 446.57 546.87 448.73 545.40
  A 1.27 1.25 76.6 0 0 449.27 544.51
  C 451.56 525.17 446.25 503.74 448.43 481.32
  Q 448.48 480.74 448.98 480.44
  L 453.81 477.60
  Q 454.28 477.33 454.48 476.82
  Q 458.13 467.70 454.41 458.79
  Q 454.11 458.09 453.44 457.75
  Z"
/>
<path fill="#0066b2" d="
  M 1089.90 579.07
  C 1095.99 586.24 1092.46 595.28 1091.52 603.75
  C 1090.21 615.53 1099.26 619.51 1107.50 625.19
  C 1116.49 631.39 1108.86 643.81 1100.98 646.49
  C 1094.06 648.85 1084.23 647.51 1076.56 646.74
  C 1063.97 645.48 1055.25 645.91 1043.93 650.67
  C 1031.22 656.02 1020.22 662.51 1008.39 667.08
  C 990.40 674.03 989.63 657.24 990.39 645.00
  C 991.01 634.92 1000.33 635.28 1005.85 629.25
  C 1014.23 620.10 1001.78 605.54 1015.20 599.23
  C 1018.56 597.66 1023.43 595.63 1025.53 594.25
  C 1033.40 589.08 1026.88 580.25 1027.72 573.51
  C 1028.72 565.42 1029.97 556.69 1029.65 549.04
  C 1029.38 542.34 1027.11 533.86 1028.75 527.19
  C 1029.51 524.11 1031.53 522.58 1033.60 520.30
  C 1037.17 516.39 1037.27 508.76 1036.57 503.69
  Q 1035.70 497.36 1036.70 490.43
  C 1037.29 486.40 1042.71 486.43 1045.53 485.43
  Q 1045.96 485.28 1046.09 484.84
  C 1047.78 479.08 1037.54 482.21 1037.00 476.68
  Q 1036.88 475.46 1036.86 475.36
  Q 1033.39 455.50 1037.99 437.00
  C 1040.68 426.20 1053.45 420.22 1052.28 408.00
  C 1051.91 404.11 1051.57 400.20 1051.03 396.33
  C 1048.90 380.90 1063.44 384.58 1064.81 372.49
  C 1066.99 353.25 1063.19 329.92 1077.15 314.08
  Q 1079.55 311.36 1081.91 308.61
  C 1087.17 302.51 1083.62 296.62 1082.98 290.99
  C 1082.25 284.61 1086.67 280.41 1089.72 275.32
  C 1092.72 270.31 1094.33 263.98 1096.60 258.45
  C 1100.77 248.29 1109.04 239.31 1112.00 229.00
  C 1113.27 224.59 1111.33 215.90 1111.05 211.05
  C 1110.21 196.40 1129.56 197.37 1132.53 184.57
  C 1134.99 173.98 1125.78 161.77 1140.10 155.42
  C 1147.92 151.95 1158.24 154.18 1159.78 163.75
  Q 1160.31 167.00 1160.94 178.07
  C 1161.92 195.08 1177.72 207.10 1183.86 222.26
  C 1187.48 231.20 1184.30 239.93 1185.99 249.00
  Q 1188.44 262.05 1192.01 274.81
  C 1195.17 286.10 1200.43 298.26 1204.82 309.94
  C 1211.38 327.38 1211.25 345.83 1216.79 363.44
  Q 1219.27 371.33 1222.34 379.02
  C 1224.25 383.82 1231.01 382.89 1229.28 390.26
  C 1227.66 397.13 1224.84 403.49 1228.89 410.59
  C 1232.72 417.29 1237.57 423.44 1238.78 431.50
  C 1240.13 440.58 1238.71 454.94 1238.69 461.58
  Q 1238.61 483.66 1242.14 502.82
  C 1243.22 508.67 1246.18 516.83 1246.55 524.33
  Q 1249.71 588.80 1247.65 653.32
  Q 1247.56 656.02 1247.08 663.16
  Q 1247.05 663.68 1246.73 664.09
  C 1245.01 666.36 1243.08 668.09 1241.98 670.72
  C 1238.13 679.90 1234.11 689.40 1231.97 698.84
  C 1230.68 704.52 1230.09 714.66 1226.48 719.50
  C 1223.08 724.07 1216.91 724.98 1216.53 731.81
  C 1215.84 744.52 1219.62 755.75 1213.48 768.89
  Q 1206.96 782.84 1202.26 794.54
  C 1199.23 802.06 1201.71 809.88 1200.61 818.07
  A 1.74 1.67 70.4 0 1 1200.21 818.96
  C 1198.26 821.19 1193.82 824.66 1193.88 827.84
  C 1194.01 834.00 1196.59 853.12 1190.18 856.58
  C 1186.04 858.81 1179.70 861.28 1174.88 859.11
  Q 1174.38 858.89 1174.33 858.34
  C 1173.44 847.62 1175.16 835.55 1174.73 826.86
  C 1173.84 808.82 1165.84 794.01 1160.49 776.41
  C 1155.92 761.38 1165.65 749.14 1150.88 736.85
  Q 1141.20 728.79 1138.05 726.43
  C 1115.35 709.34 1146.02 682.82 1153.17 667.00
  C 1160.55 650.71 1175.72 619.52 1158.30 605.20
  C 1139.68 589.90 1116.52 579.04 1094.79 568.90
  Q 1094.32 568.68 1093.87 568.94
  Q 1090.29 571.08 1089.17 575.13
  Q 1089.04 575.59 1089.15 576.06
  Q 1089.38 577.12 1089.53 578.23
  Q 1089.59 578.70 1089.90 579.07
  Z
  M 1102.83 526.30
  C 1115.63 524.58 1128.62 524.20 1141.11 527.88
  A 1.40 1.39 -7.7 0 1 1141.90 528.48
  L 1145.26 533.84
  Q 1145.56 534.33 1146.12 534.48
  Q 1151.60 535.93 1155.40 538.86
  C 1157.93 540.82 1162.74 546.15 1166.75 547.24
  C 1170.22 548.18 1178.37 548.44 1178.63 543.19
  Q 1180.86 497.58 1178.69 450.80
  Q 1178.63 449.58 1177.46 449.23
  L 1174.10 448.24
  Q 1173.68 448.12 1173.57 447.70
  Q 1172.66 444.37 1172.66 443.00
  Q 1172.72 429.20 1171.64 415.60
  A 1.33 1.33 0.0 0 0 1169.97 414.42
  Q 1167.75 415.00 1165.68 414.38
  A 1.48 1.44 -7.0 0 1 1164.85 413.75
  Q 1163.59 411.74 1162.20 409.76
  C 1158.57 404.60 1154.33 408.00 1149.69 406.77
  C 1143.41 405.10 1140.43 396.87 1137.90 392.22
  C 1135.76 388.26 1132.25 383.35 1130.27 378.35
  A 0.65 0.65 0.0 0 0 1129.04 378.41
  C 1126.32 387.90 1126.14 399.71 1126.26 409.57
  Q 1126.27 410.06 1125.98 410.46
  Q 1121.21 417.02 1119.02 424.80
  C 1117.63 429.74 1112.94 428.60 1109.01 428.49
  A 2.51 2.51 0.0 0 0 1106.44 430.75
  C 1106.08 434.52 1106.10 437.96 1106.84 441.94
  C 1108.19 449.25 1110.23 456.41 1106.06 463.27
  Q 1102.92 468.43 1102.47 473.98
  C 1101.34 488.30 1102.35 508.34 1101.87 525.44
  A 0.85 0.85 0.0 0 0 1102.83 526.30
  Z"
/>
<path fill="#0066b2" d="
  M 1709.15 172.88
  L 1715.18 184.79
  Q 1715.54 185.50 1714.75 185.50
  L 1705.62 185.50
  Q 1705.11 185.50 1704.89 185.03
  L 1699.78 173.95
  A 0.54 0.53 32.7 0 0 1698.76 174.17
  L 1698.75 185.00
  Q 1698.75 185.50 1698.25 185.50
  L 1689.75 185.50
  A 0.50 0.50 0.0 0 1 1689.25 185.00
  L 1689.25 155.79
  Q 1689.25 155.37 1689.67 155.35
  C 1697.25 155.08 1706.28 154.34 1710.91 157.11
  C 1717.30 160.93 1715.88 169.15 1709.46 172.01
  A 0.64 0.64 0.0 0 0 1709.15 172.88
  Z
  M 1698.73 161.84
  L 1698.75 167.54
  A 0.86 0.86 0.0 0 0 1699.62 168.39
  L 1700.53 168.39
  A 4.73 3.48 -0.3 0 0 1705.24 164.88
  L 1705.24 164.42
  A 4.73 3.48 -0.3 0 0 1700.49 160.97
  L 1699.58 160.97
  A 0.86 0.86 0.0 0 0 1698.73 161.84
  Z"
/>
<path fill="#000000" d="
  M 1698.73 161.84
  A 0.86 0.86 0.0 0 1 1699.58 160.97
  L 1700.49 160.97
  A 4.73 3.48 -0.3 0 1 1705.24 164.42
  L 1705.24 164.88
  A 4.73 3.48 -0.3 0 1 1700.53 168.39
  L 1699.62 168.39
  A 0.86 0.86 0.0 0 1 1698.75 167.54
  L 1698.73 161.84
  Z"
/>
<path fill="#0066b2" d="
  M 886.10 270.04
  Q 886.44 268.77 886.51 267.50
  C 888.13 241.09 886.65 214.72 885.86 188.32
  Q 885.51 176.54 886.21 167.80
  C 886.43 165.06 888.03 162.87 890.81 162.83
  C 916.91 162.46 952.14 162.92 987.94 162.27
  Q 1031.57 161.47 1075.20 161.87
  C 1080.95 161.93 1091.92 162.80 1091.79 170.97
  Q 1091.66 179.03 1087.78 186.81
  C 1084.21 193.95 1081.23 200.84 1076.36 206.26
  C 1072.24 210.84 1068.11 214.88 1067.94 221.58
  Q 1067.59 235.93 1067.26 240.75
  C 1066.38 253.40 1050.10 249.09 1049.64 262.75
  C 1049.41 269.46 1051.45 275.82 1049.86 282.53
  C 1049.00 286.19 1043.18 286.61 1040.37 287.36
  A 3.53 3.50 -0.2 0 0 1037.88 289.85
  C 1037.06 292.92 1036.07 295.96 1035.77 299.13
  C 1034.72 310.32 1035.18 322.92 1031.83 333.63
  C 1029.92 339.73 1024.64 346.34 1023.43 352.48
  Q 1022.01 359.66 1022.51 374.75
  C 1023.00 389.45 1024.59 404.52 1023.17 419.18
  C 1022.73 423.65 1017.48 427.72 1016.21 432.67
  Q 1012.45 447.24 1008.58 461.76
  C 1006.66 468.92 998.43 470.79 998.73 479.00
  C 999.03 487.31 1002.90 494.98 994.99 501.99
  C 989.76 506.62 983.04 510.27 981.70 517.98
  C 977.47 542.26 984.59 566.46 981.18 590.69
  C 979.67 601.42 971.18 609.31 968.44 619.67
  C 965.69 630.02 967.06 642.81 967.53 653.50
  C 968.46 674.97 952.48 688.72 947.23 708.24
  C 945.48 714.73 941.39 721.01 938.52 727.12
  C 936.69 731.04 936.68 738.27 942.41 739.13
  C 953.74 740.84 968.65 741.59 978.90 736.54
  Q 979.34 736.32 979.57 735.88
  C 982.07 731.03 977.84 722.95 982.82 719.28
  Q 991.64 712.77 999.72 709.43
  Q 1021.83 700.28 1045.44 688.69
  Q 1051.95 685.50 1057.26 681.69
  C 1061.52 678.64 1062.48 672.39 1066.03 669.51
  Q 1068.58 667.44 1070.21 670.80
  C 1071.74 673.98 1072.63 675.86 1076.62 675.92
  C 1085.47 676.04 1097.55 673.11 1105.20 675.77
  C 1108.48 676.92 1110.42 688.83 1111.19 692.14
  Q 1112.07 695.93 1109.44 698.36
  A 1.04 1.03 30.4 0 1 1108.48 698.60
  C 1100.24 696.60 1102.51 708.98 1103.42 712.91
  C 1104.28 716.61 1108.03 720.43 1108.24 723.99
  C 1109.37 743.86 1110.25 763.57 1107.93 782.92
  C 1107.29 788.17 1103.96 790.67 1098.67 790.54
  C 1073.15 789.95 1047.74 791.10 1022.25 791.55
  Q 1019.99 791.59 1018.87 790.61
  A 1.23 1.22 -68.3 0 1 1018.45 789.62
  Q 1018.69 785.52 1015.20 784.54
  C 1006.97 782.25 993.97 780.89 985.81 784.51
  C 980.95 786.67 978.23 791.86 973.05 793.57
  Q 968.27 795.16 963.19 795.41
  Q 948.65 796.12 931.25 795.99
  Q 924.85 795.95 918.28 797.46
  C 913.83 798.48 910.20 802.01 906.28 803.45
  C 898.88 806.16 887.06 807.68 880.98 801.83
  A 1.59 1.57 -73.5 0 1 880.51 800.95
  C 878.02 787.35 879.01 773.94 880.56 760.36
  A 0.79 0.78 -88.6 0 1 881.27 759.67
  L 886.77 759.22
  A 1.26 1.24 16.0 0 0 887.64 758.75
  C 890.19 755.47 892.74 749.35 890.61 745.22
  A 0.65 0.65 0.0 0 0 889.78 744.91
  Q 887.29 745.96 886.54 743.52
  C 885.04 738.65 886.69 734.01 891.25 731.77
  C 894.62 730.11 900.30 728.82 900.48 724.00
  C 900.70 717.96 898.34 711.17 899.68 705.50
  A 1.05 1.05 0.0 0 1 900.98 704.73
  L 905.51 705.97
  A 0.64 0.64 0.0 0 0 906.29 705.54
  C 909.69 693.97 903.11 678.09 910.22 668.14
  Q 910.51 667.73 910.56 667.23
  C 911.69 655.53 912.52 644.51 910.57 633.42
  C 909.21 625.68 903.70 620.18 902.60 612.41
  C 897.70 577.87 896.79 540.03 907.89 507.42
  Q 915.82 484.11 925.60 461.51
  C 926.41 459.64 927.09 458.04 928.47 456.40
  C 933.34 450.62 938.02 441.06 936.20 433.31
  C 935.23 429.13 928.02 424.49 930.66 418.73
  C 932.53 414.64 937.98 413.89 939.83 409.51
  C 942.50 403.22 938.44 393.68 939.46 387.51
  C 941.25 376.64 954.31 371.74 956.64 360.86
  C 957.91 354.98 957.27 346.93 957.50 340.45
  C 958.11 323.32 968.96 302.69 977.23 287.90
  C 981.13 280.93 987.43 273.33 990.98 267.45
  C 997.63 256.42 997.81 243.64 999.21 231.21
  Q 999.27 230.72 998.89 230.41
  C 993.57 225.92 983.27 229.89 977.00 230.95
  C 968.81 232.33 967.39 227.60 964.14 221.86
  A 4.15 4.13 78.0 0 0 960.94 219.77
  C 945.52 218.24 932.59 220.68 926.74 236.49
  Q 925.44 240.01 922.78 249.80
  C 919.63 261.38 919.46 271.49 918.58 284.50
  C 918.24 289.53 916.03 302.48 910.45 305.42
  Q 903.83 308.90 897.19 312.36
  C 895.66 313.15 894.29 314.90 893.22 315.76
  Q 887.20 320.59 881.49 315.34
  A 1.64 1.62 14.4 0 1 881.01 314.54
  Q 879.38 308.17 880.00 302.74
  Q 881.38 290.64 878.47 280.03
  Q 877.80 277.58 879.03 273.41
  A 1.00 0.98 -1.9 0 1 879.66 272.75
  L 885.45 270.74
  A 1.02 0.99 88.5 0 0 886.10 270.04
  Z"
/>
<path fill="#0066b2" d="
  M 244.29 838.49
  C 239.31 838.94 232.67 848.91 230.09 848.43
  Q 218.15 846.21 207.31 846.83
  Q 189.17 847.88 171.00 848.01
  C 162.82 848.07 148.78 847.71 142.27 842.02
  C 138.41 838.64 141.55 834.00 146.11 833.48
  C 154.93 832.47 167.18 827.17 169.00 817.26
  C 169.93 812.20 170.24 803.12 172.73 796.15
  Q 174.06 792.41 174.39 789.15
  C 177.81 755.48 180.21 720.40 177.93 686.59
  Q 177.72 683.42 175.89 668.96
  Q 174.42 657.42 174.35 644.81
  Q 173.96 578.06 175.64 519.84
  A 1.76 1.76 0.0 0 1 175.95 518.91
  C 180.37 512.55 180.14 507.80 180.58 501.05
  C 180.98 494.85 182.79 490.98 179.71 484.87
  Q 177.64 480.79 177.44 477.25
  Q 176.27 456.83 176.83 438.50
  C 177.06 430.84 180.50 422.82 182.53 415.31
  C 184.19 409.22 184.90 397.17 177.05 394.58
  C 171.73 392.82 173.21 381.29 173.37 375.18
  C 174.51 331.77 175.40 293.47 174.53 253.45
  C 174.46 250.14 178.09 248.63 180.17 247.01
  C 184.47 243.66 184.31 235.20 182.93 230.64
  A 2.91 2.91 0.0 0 0 179.91 228.58
  L 173.93 229.07
  Q 173.50 229.11 173.18 228.83
  C 163.11 220.42 151.53 212.48 143.06 202.36
  Q 132.43 189.67 141.74 176.17
  C 149.48 164.94 172.28 173.07 183.96 170.32
  C 189.29 169.07 194.13 165.87 199.64 165.90
  Q 202.97 165.92 204.74 165.80
  C 246.80 163.09 289.71 160.26 331.77 164.01
  C 340.31 164.77 341.33 178.19 350.55 181.09
  C 358.80 183.69 369.67 184.56 376.18 190.59
  C 387.72 201.28 395.42 213.81 397.03 229.41
  Q 399.49 253.22 401.39 277.07
  C 403.90 308.76 384.23 335.83 367.49 360.64
  C 363.16 367.06 358.07 372.88 353.05 378.89
  C 349.87 382.69 341.47 393.89 351.20 395.69
  C 357.31 396.82 364.17 396.52 369.98 398.40
  C 383.39 402.73 372.94 417.67 373.35 426.40
  C 373.96 439.18 390.35 437.27 393.01 448.50
  C 394.62 455.32 394.22 464.00 393.38 472.14
  C 391.89 486.57 389.71 500.88 391.08 514.94
  C 392.10 525.45 404.62 522.90 405.33 533.88
  C 405.61 538.26 406.01 542.69 406.04 547.04
  Q 406.45 606.73 406.82 630.00
  C 406.93 636.94 403.27 639.77 399.29 644.83
  C 396.49 648.38 396.83 653.73 396.93 659.38
  C 397.12 670.20 398.87 682.50 398.58 691.26
  C 397.98 709.41 388.02 722.29 379.07 737.07
  C 374.39 744.80 372.59 752.91 371.05 763.07
  C 369.56 772.99 368.95 784.74 363.33 793.32
  Q 363.04 793.76 362.55 793.94
  Q 334.05 804.16 313.69 823.18
  C 307.62 828.86 302.48 834.89 297.09 837.37
  C 295.18 838.25 293.58 839.51 291.50 839.85
  C 282.79 841.30 273.78 839.13 266.46 845.10
  C 262.42 848.41 260.15 850.15 255.34 847.97
  Q 254.86 847.75 254.59 847.30
  C 252.06 842.96 250.52 837.93 244.29 838.49
  Z
  M 269.16 366.23
  C 273.00 366.32 283.25 368.32 285.99 362.96
  C 289.89 355.36 299.36 334.99 308.56 333.60
  C 311.19 333.20 322.95 331.75 324.50 329.20
  Q 326.87 325.28 325.93 318.81
  C 324.59 309.67 322.72 300.95 322.48 291.68
  A 1.58 1.58 0.0 0 1 322.74 290.78
  Q 330.46 279.12 321.23 268.80
  C 315.25 262.11 333.74 252.71 326.39 247.55
  C 324.32 246.09 317.41 246.75 314.74 246.72
  C 307.90 246.64 306.78 244.31 304.70 238.44
  Q 304.53 237.96 304.10 237.72
  C 298.93 234.80 284.02 234.72 278.74 235.83
  C 274.23 236.77 268.92 236.29 268.66 242.65
  C 267.04 283.73 267.96 324.56 268.56 365.63
  Q 268.57 366.22 269.16 366.23
  Z
  M 255.65 560.90
  C 251.64 565.41 256.24 568.94 259.72 571.77
  Q 260.12 572.10 260.14 572.62
  C 260.80 586.59 261.75 600.57 261.75 614.49
  Q 261.75 644.84 261.75 675.19
  A 1.54 1.52 -26.7 0 1 261.44 676.11
  C 259.00 679.38 252.08 687.13 252.26 691.00
  Q 253.71 722.34 255.12 753.69
  C 255.25 756.76 255.72 758.72 254.26 761.47
  Q 249.42 770.58 244.77 779.78
  Q 244.50 780.31 245.07 780.16
  Q 257.30 777.01 269.46 773.62
  Q 271.70 773.00 273.47 771.47
  C 285.54 760.99 298.16 751.59 309.20 739.35
  C 313.62 734.44 315.25 730.56 315.75 724.24
  Q 317.18 706.44 317.87 695.89
  Q 318.23 690.39 319.52 685.26
  Q 323.84 668.02 328.09 650.77
  C 331.77 635.82 328.82 622.32 322.60 608.20
  C 317.66 596.99 324.83 586.46 329.08 576.51
  C 330.12 574.08 330.50 571.97 328.72 570.03
  C 323.41 564.24 318.83 558.96 318.16 551.19
  C 317.57 544.35 321.32 534.12 323.27 526.82
  C 325.23 519.49 324.06 514.11 321.36 507.00
  C 318.90 500.51 318.47 496.02 319.60 489.62
  C 322.44 473.48 316.12 473.39 305.89 464.18
  Q 289.24 449.20 273.89 432.86
  Q 271.08 429.86 269.54 433.15
  A 1.95 1.86 60.0 0 0 269.35 433.94
  Q 268.57 458.85 267.38 483.50
  C 267.22 486.99 263.69 492.91 263.12 497.07
  Q 262.67 500.38 263.16 503.77
  C 264.05 509.96 265.67 517.74 265.69 525.34
  C 265.70 533.59 263.77 543.17 263.35 552.17
  Q 263.32 552.66 262.98 553.02
  Q 259.22 556.88 255.65 560.90
  Z"
/>
<path fill="#0066b2" d="
  M 856.44 206.01
  Q 857.37 206.45 857.43 207.48
  C 859.40 238.39 858.31 264.85 856.97 301.00
  Q 856.59 311.34 856.28 314.81
  Q 856.23 315.33 855.86 315.69
  C 853.40 318.13 851.44 320.18 851.47 323.94
  C 851.53 332.16 852.54 341.82 849.56 349.69
  C 846.87 356.79 841.47 364.28 837.27 370.92
  C 831.50 380.04 832.03 391.97 826.25 400.80
  C 819.98 410.38 817.00 415.17 817.06 425.74
  C 817.08 430.99 817.86 444.24 814.72 448.43
  C 812.31 451.64 806.15 449.40 801.98 452.11
  C 794.83 456.73 787.97 464.33 787.63 472.83
  C 787.36 479.35 791.40 492.49 787.42 497.81
  Q 787.10 498.22 786.59 498.33
  C 782.37 499.23 779.12 499.10 776.65 503.20
  C 756.11 537.34 747.16 575.05 733.75 612.72
  C 725.22 636.67 716.65 660.58 708.71 684.74
  C 707.52 688.36 708.06 691.05 710.65 693.61
  C 714.58 697.48 724.91 690.64 727.81 688.31
  Q 739.69 678.78 753.00 676.05
  C 763.32 673.94 773.61 670.13 778.92 660.92
  C 783.95 652.19 786.43 641.46 797.53 634.58
  C 804.87 630.03 813.19 625.89 819.66 620.17
  C 823.68 616.62 822.67 612.70 822.54 608.02
  C 822.15 594.33 837.94 604.02 844.75 602.00
  C 848.15 601.00 845.20 594.81 845.25 592.07
  A 1.31 1.31 0.0 0 1 846.90 590.84
  L 850.48 591.80
  A 1.56 1.56 0.0 0 0 852.35 590.83
  C 853.74 587.04 852.78 581.99 853.49 577.84
  A 2.88 2.88 0.0 0 1 855.78 575.49
  C 859.52 574.77 870.35 575.17 871.29 580.67
  Q 873.56 593.88 872.55 607.26
  C 872.35 609.89 871.63 610.89 869.46 612.13
  Q 869.00 612.39 868.83 612.89
  Q 866.18 620.65 861.04 627.04
  C 857.23 631.77 856.98 640.71 857.02 646.59
  C 857.17 670.06 859.55 693.71 857.28 717.09
  A 2.72 2.71 3.1 0 1 854.54 719.54
  C 851.85 719.50 843.87 718.51 841.85 720.62
  C 840.28 722.26 840.52 725.83 840.48 728.08
  A 1.76 1.76 0.0 0 1 838.85 729.81
  C 816.73 731.59 794.06 729.62 771.92 729.75
  A 0.99 0.98 -88.6 0 1 770.93 728.70
  L 771.25 722.97
  A 1.53 1.53 0.0 0 0 770.15 721.41
  Q 760.92 718.76 753.08 724.11
  A 1.76 1.74 -7.4 0 0 752.45 724.92
  L 749.63 732.34
  A 3.35 3.35 0.0 0 1 746.50 734.50
  L 733.39 734.50
  A 3.68 3.68 0.0 0 1 730.19 732.64
  L 725.62 724.63
  A 4.60 4.56 -10.3 0 0 722.34 722.38
  C 711.95 720.75 701.72 722.50 688.19 723.65
  C 685.67 723.86 677.45 724.37 675.25 722.63
  C 672.59 720.52 671.69 714.32 671.56 711.42
  A 2.88 2.88 0.0 0 1 673.09 708.75
  L 678.12 706.10
  Q 678.70 705.80 678.78 705.15
  C 680.57 692.26 678.56 680.49 680.87 667.02
  Q 680.94 666.64 681.28 666.46
  L 686.72 663.53
  A 1.85 1.80 -0.4 0 0 687.47 662.79
  Q 691.02 656.26 687.76 649.56
  A 1.54 1.50 0.4 0 0 687.05 648.86
  Q 684.24 647.49 681.33 646.77
  C 675.64 645.38 673.15 639.75 673.91 634.25
  C 674.70 628.57 686.75 628.91 682.72 622.03
  Q 679.53 616.58 675.58 611.68
  C 671.70 606.84 675.65 586.51 676.96 580.24
  Q 681.57 558.23 688.23 524.25
  Q 689.40 518.31 692.20 512.89
  C 697.53 502.61 707.49 495.22 711.80 484.15
  C 716.58 471.88 717.79 453.38 731.68 446.67
  C 741.60 441.88 735.88 430.87 737.24 422.50
  Q 741.64 395.34 755.79 371.80
  C 759.69 365.32 767.00 360.90 771.47 356.22
  C 779.19 348.13 793.87 328.89 792.16 316.57
  C 791.04 308.42 787.19 299.82 794.22 291.73
  C 805.64 278.60 817.84 266.10 827.04 251.06
  C 834.31 239.16 831.56 223.44 830.01 211.01
  C 829.61 207.82 827.51 208.21 824.70 208.26
  C 809.04 208.56 793.25 208.01 777.64 208.66
  C 769.98 208.97 764.99 209.13 759.48 213.23
  C 749.60 220.57 740.89 229.26 736.32 240.90
  C 734.68 245.08 737.14 254.33 732.98 256.12
  C 729.14 257.77 724.55 252.65 720.69 256.25
  Q 714.08 262.42 713.86 271.45
  Q 713.53 285.28 714.27 302.51
  C 714.48 307.57 713.96 312.35 713.56 317.32
  A 1.14 1.13 -14.8 0 1 713.08 318.14
  C 711.39 319.29 708.00 320.56 707.26 322.35
  C 704.81 328.28 715.25 337.60 698.94 334.89
  C 696.87 334.55 694.43 335.04 694.43 331.97
  Q 694.43 328.30 694.99 323.75
  C 695.84 316.87 690.57 313.95 689.19 307.34
  Q 686.57 294.75 684.69 282.01
  C 683.81 276.08 687.69 273.66 688.16 269.45
  Q 689.83 254.23 685.60 239.84
  A 2.57 2.57 0.0 0 0 683.74 238.07
  L 679.23 236.99
  A 2.67 2.65 -83.1 0 1 677.19 234.37
  Q 677.47 209.60 677.57 185.28
  C 677.63 172.95 680.29 168.73 692.61 168.20
  Q 711.33 167.40 730.00 167.86
  C 768.70 168.80 810.52 167.16 850.93 168.48
  A 1.32 1.32 0.0 0 1 852.21 169.85
  L 851.17 202.19
  A 1.89 1.87 -76.3 0 0 852.23 203.95
  L 856.44 206.01
  Z"
/>
<path fill="#0066b2" d="
  M 616.52 454.28
  C 616.47 468.20 615.75 482.41 617.50 496.29
  C 618.45 503.86 619.13 511.47 620.24 519.02
  C 620.65 521.84 620.35 524.59 620.90 527.28
  C 621.71 531.20 622.88 535.84 622.45 539.83
  Q 622.38 540.42 621.98 540.85
  L 611.89 551.49
  Q 611.50 551.89 611.50 552.46
  L 611.50 563.25
  Q 611.50 563.69 611.76 564.05
  L 615.40 568.92
  Q 615.67 569.28 615.69 569.73
  Q 616.40 583.44 617.14 597.13
  C 617.49 603.45 622.27 607.62 622.26 613.83
  Q 622.21 632.26 622.27 650.66
  Q 622.27 651.12 622.01 651.50
  L 613.54 663.61
  Q 613.24 664.03 613.31 664.54
  L 616.40 687.77
  A 1.48 1.48 0.0 0 0 617.02 688.78
  C 628.10 696.46 642.63 703.22 651.45 709.80
  Q 659.74 715.99 658.45 725.96
  C 657.70 731.73 653.38 733.20 648.08 732.20
  Q 641.64 730.99 635.14 730.63
  Q 634.65 730.60 634.25 730.89
  C 629.13 734.67 625.64 731.78 621.43 728.83
  Q 619.77 727.66 614.44 727.28
  C 600.65 726.31 585.94 728.62 572.19 730.01
  C 565.82 730.65 560.12 738.01 555.23 742.19
  C 550.73 746.05 547.71 744.69 544.83 740.17
  C 537.05 727.95 556.06 715.59 564.23 710.03
  C 567.16 708.04 572.15 697.64 572.24 694.11
  Q 573.05 661.86 573.70 629.61
  C 573.79 624.88 579.47 620.45 579.00 616.83
  C 578.71 614.63 575.13 611.74 573.52 610.26
  Q 573.14 609.91 573.12 609.40
  C 572.79 602.35 571.85 589.81 574.83 583.45
  Q 578.81 574.94 578.63 566.06
  Q 577.85 526.50 577.23 486.94
  C 576.61 447.55 577.04 409.73 576.65 387.06
  Q 575.17 299.12 573.11 211.19
  C 573.06 209.25 573.03 207.45 572.21 205.68
  C 568.07 196.78 561.35 196.40 552.66 195.23
  C 546.60 194.42 530.34 186.99 530.09 179.50
  C 529.91 173.88 537.45 170.93 542.08 170.56
  C 555.09 169.53 563.30 169.82 576.81 170.76
  C 598.04 172.26 619.68 171.51 640.97 171.52
  C 646.84 171.52 651.85 176.21 649.97 182.35
  C 648.42 187.39 648.28 191.57 643.48 194.74
  C 640.93 196.43 637.53 196.35 634.34 197.46
  C 629.53 199.14 624.11 207.95 621.82 212.29
  C 619.71 216.31 620.41 221.80 620.54 226.21
  A 1.06 1.04 19.0 0 0 620.94 227.01
  C 626.22 231.15 633.40 236.34 627.30 243.78
  Q 625.27 246.26 620.57 252.62
  A 1.53 1.51 -27.4 0 0 620.28 253.51
  Q 621.61 337.04 622.83 420.54
  C 623.02 433.54 634.56 447.59 617.04 453.55
  Q 616.52 453.73 616.52 454.28
  Z"
/>
<path fill="#000000" d="
  M 1327.67 400.34
  C 1323.58 397.72 1323.55 390.49 1323.52 386.23
  C 1323.41 372.60 1324.57 357.29 1324.46 345.44
  C 1324.28 325.09 1323.31 304.83 1323.94 282.18
  Q 1324.58 259.21 1323.67 242.06
  C 1323.48 238.54 1322.68 229.37 1325.01 227.45
  C 1327.30 225.57 1333.13 227.21 1335.80 227.77
  C 1348.91 230.53 1352.32 240.85 1360.77 249.12
  C 1371.79 259.89 1392.32 279.21 1391.40 295.86
  C 1391.00 302.98 1390.29 323.07 1385.59 328.08
  C 1381.32 332.62 1384.15 345.44 1381.94 352.07
  C 1379.70 358.77 1374.43 363.63 1372.82 370.60
  C 1371.41 376.73 1371.05 382.17 1366.22 387.18
  C 1360.97 392.62 1350.34 401.64 1342.53 402.10
  C 1338.66 402.33 1331.01 402.47 1327.67 400.34
  Z"
/>
<path fill="#000000" d="
  M 285.99 362.96
  C 283.25 368.32 273.00 366.32 269.16 366.23
  Q 268.57 366.22 268.56 365.63
  C 267.96 324.56 267.04 283.73 268.66 242.65
  C 268.92 236.29 274.23 236.77 278.74 235.83
  C 284.02 234.72 298.93 234.80 304.10 237.72
  Q 304.53 237.96 304.70 238.44
  C 306.78 244.31 307.90 246.64 314.74 246.72
  C 317.41 246.75 324.32 246.09 326.39 247.55
  C 333.74 252.71 315.25 262.11 321.23 268.80
  Q 330.46 279.12 322.74 290.78
  A 1.58 1.58 0.0 0 0 322.48 291.68
  C 322.72 300.95 324.59 309.67 325.93 318.81
  Q 326.87 325.28 324.50 329.20
  C 322.95 331.75 311.19 333.20 308.56 333.60
  C 299.36 334.99 289.89 355.36 285.99 362.96
  Z"
/>
<path fill="#000000" d="
  M 1564.50 737.19
  Q 1561.42 733.25 1561.44 727.75
  Q 1561.95 596.57 1563.45 484.26
  C 1563.55 477.01 1563.59 469.64 1557.72 463.96
  A 1.29 1.26 20.5 0 1 1557.32 463.11
  C 1556.39 449.07 1552.76 437.19 1546.94 423.77
  Q 1545.24 419.84 1545.13 409.94
  Q 1544.58 362.22 1543.91 314.50
  C 1543.81 307.37 1543.41 301.05 1552.78 301.72
  C 1562.94 302.44 1573.06 299.96 1582.06 303.71
  Q 1589.57 306.85 1595.52 312.37
  C 1599.44 315.99 1601.51 321.09 1605.31 324.92
  Q 1610.49 330.13 1615.68 335.32
  C 1624.62 344.24 1630.83 360.24 1635.00 372.94
  Q 1636.39 377.14 1636.70 381.91
  C 1638.03 402.06 1640.61 424.84 1630.64 443.41
  C 1627.39 449.45 1626.35 456.49 1625.20 463.60
  C 1623.87 471.80 1621.38 476.11 1616.55 482.80
  Q 1611.81 489.39 1611.72 499.06
  Q 1611.21 553.41 1610.06 607.74
  C 1609.65 626.92 1603.04 642.79 1594.58 660.08
  C 1591.25 666.89 1590.91 671.71 1590.51 680.77
  Q 1590.05 691.19 1585.94 700.93
  Q 1579.88 715.29 1573.48 729.49
  C 1572.31 732.09 1569.28 738.22 1565.48 737.75
  Q 1564.88 737.67 1564.50 737.19
  Z"
/>
<path fill="#000000" d="
  M 1141.11 527.88
  C 1128.62 524.20 1115.63 524.58 1102.83 526.30
  A 0.85 0.85 0.0 0 1 1101.87 525.44
  C 1102.35 508.34 1101.34 488.30 1102.47 473.98
  Q 1102.92 468.43 1106.06 463.27
  C 1110.23 456.41 1108.19 449.25 1106.84 441.94
  C 1106.10 437.96 1106.08 434.52 1106.44 430.75
  A 2.51 2.51 0.0 0 1 1109.01 428.49
  C 1112.94 428.60 1117.63 429.74 1119.02 424.80
  Q 1121.21 417.02 1125.98 410.46
  Q 1126.27 410.06 1126.26 409.57
  C 1126.14 399.71 1126.32 387.90 1129.04 378.41
  A 0.65 0.65 0.0 0 1 1130.27 378.35
  C 1132.25 383.35 1135.76 388.26 1137.90 392.22
  C 1140.43 396.87 1143.41 405.10 1149.69 406.77
  C 1154.33 408.00 1158.57 404.60 1162.20 409.76
  Q 1163.59 411.74 1164.85 413.75
  A 1.48 1.44 -7.0 0 0 1165.68 414.38
  Q 1167.75 415.00 1169.97 414.42
  A 1.33 1.33 0.0 0 1 1171.64 415.60
  Q 1172.72 429.20 1172.66 443.00
  Q 1172.66 444.37 1173.57 447.70
  Q 1173.68 448.12 1174.10 448.24
  L 1177.46 449.23
  Q 1178.63 449.58 1178.69 450.80
  Q 1180.86 497.58 1178.63 543.19
  C 1178.37 548.44 1170.22 548.18 1166.75 547.24
  C 1162.74 546.15 1157.93 540.82 1155.40 538.86
  Q 1151.60 535.93 1146.12 534.48
  Q 1145.56 534.33 1145.26 533.84
  L 1141.90 528.48
  A 1.40 1.39 -7.7 0 0 1141.11 527.88
  Z"
/>
<path fill="#000000" d="
  M 259.72 571.77
  C 256.24 568.94 251.64 565.41 255.65 560.90
  Q 259.22 556.88 262.98 553.02
  Q 263.32 552.66 263.35 552.17
  C 263.77 543.17 265.70 533.59 265.69 525.34
  C 265.67 517.74 264.05 509.96 263.16 503.77
  Q 262.67 500.38 263.12 497.07
  C 263.69 492.91 267.22 486.99 267.38 483.50
  Q 268.57 458.85 269.35 433.94
  A 1.95 1.86 60.0 0 1 269.54 433.15
  Q 271.08 429.86 273.89 432.86
  Q 289.24 449.20 305.89 464.18
  C 316.12 473.39 322.44 473.48 319.60 489.62
  C 318.47 496.02 318.90 500.51 321.36 507.00
  C 324.06 514.11 325.23 519.49 323.27 526.82
  C 321.32 534.12 317.57 544.35 318.16 551.19
  C 318.83 558.96 323.41 564.24 328.72 570.03
  C 330.50 571.97 330.12 574.08 329.08 576.51
  C 324.83 586.46 317.66 596.99 322.60 608.20
  C 328.82 622.32 331.77 635.82 328.09 650.77
  Q 323.84 668.02 319.52 685.26
  Q 318.23 690.39 317.87 695.89
  Q 317.18 706.44 315.75 724.24
  C 315.25 730.56 313.62 734.44 309.20 739.35
  C 298.16 751.59 285.54 760.99 273.47 771.47
  Q 271.70 773.00 269.46 773.62
  Q 257.30 777.01 245.07 780.16
  Q 244.50 780.31 244.77 779.78
  Q 249.42 770.58 254.26 761.47
  C 255.72 758.72 255.25 756.76 255.12 753.69
  Q 253.71 722.34 252.26 691.00
  C 252.08 687.13 259.00 679.38 261.44 676.11
  A 1.54 1.52 -26.7 0 0 261.75 675.19
  Q 261.75 644.84 261.75 614.49
  C 261.75 600.57 260.80 586.59 260.14 572.62
  Q 260.12 572.10 259.72 571.77
  Z"
/>
<path fill="#0066b2" d="
  M 531.89 968.00
  L 557.83 968.00
  A 0.39 0.39 0.0 0 1 558.22 968.39
  L 558.26 977.11
  A 0.39 0.39 0.0 0 1 557.87 977.50
  L 517.89 977.50
  A 0.39 0.39 0.0 0 1 517.50 977.11
  L 517.50 919.88
  A 0.39 0.39 0.0 0 1 517.89 919.49
  L 556.86 919.50
  A 0.39 0.39 0.0 0 1 557.25 919.89
  L 557.25 928.11
  A 0.39 0.39 0.0 0 1 556.86 928.50
  L 531.89 928.50
  A 0.39 0.39 0.0 0 0 531.50 928.89
  L 531.50 942.56
  A 0.39 0.39 0.0 0 0 531.89 942.95
  L 555.36 942.93
  A 0.39 0.39 0.0 0 1 555.75 943.32
  L 555.75 951.86
  A 0.39 0.39 0.0 0 1 555.36 952.25
  L 531.89 952.25
  A 0.39 0.39 0.0 0 0 531.50 952.64
  L 531.50 967.61
  A 0.39 0.39 0.0 0 0 531.89 968.00
  Z"
/>
<path fill="#0066b2" d="
  M 668.76 948.88
  Q 674.66 950.60 676.93 956.05
  Q 679.67 962.62 684.59 977.01
  Q 684.75 977.50 684.24 977.50
  L 670.73 977.50
  A 0.74 0.72 82.1 0 1 670.03 976.96
  Q 667.62 968.29 664.38 959.92
  C 662.13 954.14 656.46 953.70 651.13 954.04
  A 0.68 0.67 88.2 0 0 650.50 954.72
  L 650.50 977.00
  Q 650.50 977.50 650.00 977.50
  L 637.50 977.50
  Q 637.00 977.50 637.00 977.00
  L 637.00 920.01
  Q 637.00 919.47 637.54 919.48
  Q 649.90 919.55 661.98 919.49
  C 667.02 919.46 674.28 920.61 678.26 924.23
  C 683.80 929.26 683.53 939.21 678.20 944.32
  C 675.51 946.90 671.97 947.20 668.75 948.34
  Q 667.92 948.63 668.76 948.88
  Z
  M 650.79 928.29
  L 650.67 945.11
  A 0.22 0.22 0.0 0 0 650.89 945.33
  L 658.43 945.38
  A 10.02 7.69 0.4 0 0 668.50 937.76
  L 668.52 935.88
  A 10.02 7.69 0.4 0 0 658.55 928.12
  L 651.01 928.07
  A 0.22 0.22 0.0 0 0 650.79 928.29
  Z"
/>
<path fill="#0066b2" d="
  M 1101.44 929.60
  C 1101.98 935.34 1102.76 941.16 1102.75 946.84
  Q 1102.71 961.84 1102.79 976.93
  Q 1102.79 977.50 1102.22 977.50
  L 1091.00 977.50
  Q 1090.50 977.50 1090.50 977.00
  L 1090.50 920.00
  Q 1090.50 919.50 1091.00 919.50
  L 1108.26 919.50
  Q 1108.78 919.50 1109.01 919.97
  C 1117.96 938.14 1125.99 952.19 1130.39 967.35
  Q 1130.57 967.95 1131.17 967.77
  L 1132.04 967.51
  Q 1132.56 967.36 1132.49 966.83
  C 1130.55 951.34 1131.22 935.60 1131.24 920.01
  Q 1131.24 919.50 1131.75 919.50
  L 1142.97 919.49
  Q 1143.50 919.49 1143.50 920.03
  L 1143.50 977.00
  Q 1143.50 977.50 1143.00 977.50
  L 1125.79 977.50
  Q 1125.34 977.50 1125.14 977.10
  C 1117.51 961.54 1108.71 945.66 1103.34 929.20
  A 0.98 0.97 -56.8 0 0 1101.44 929.60
  Z"
/>
<path fill="#0066b2" d="
  M 1380.00 952.59
  L 1380.00 967.66
  A 0.34 0.34 0.0 0 0 1380.34 968.00
  L 1406.41 968.00
  A 0.34 0.34 0.0 0 1 1406.75 968.34
  L 1406.75 977.16
  A 0.34 0.34 0.0 0 1 1406.41 977.50
  L 1366.34 977.50
  A 0.34 0.34 0.0 0 1 1366.00 977.16
  L 1366.00 919.83
  A 0.34 0.34 0.0 0 1 1366.34 919.49
  L 1405.41 919.50
  A 0.34 0.34 0.0 0 1 1405.75 919.84
  L 1405.75 928.15
  A 0.34 0.34 0.0 0 1 1405.41 928.49
  L 1380.34 928.53
  A 0.34 0.34 0.0 0 0 1380.00 928.87
  L 1380.00 942.35
  A 0.34 0.34 0.0 0 0 1380.34 942.69
  L 1403.92 942.90
  A 0.34 0.34 0.0 0 1 1404.26 943.24
  L 1404.25 951.91
  A 0.34 0.34 0.0 0 1 1403.91 952.25
  L 1380.34 952.25
  A 0.34 0.34 0.0 0 0 1380.00 952.59
  Z"
/>
<path fill="#0066b2" d="
  M 1495.57 929.36
  A 0.98 0.98 0.0 0 0 1493.66 929.74
  C 1495.42 945.54 1495.01 961.07 1495.03 976.93
  Q 1495.03 977.50 1494.46 977.50
  L 1483.25 977.50
  Q 1482.75 977.50 1482.75 977.00
  L 1482.75 920.00
  Q 1482.75 919.50 1483.25 919.50
  L 1500.47 919.50
  Q 1501.02 919.50 1501.27 920.00
  C 1508.92 935.51 1516.79 950.78 1522.63 967.07
  A 1.08 1.08 0.0 0 0 1524.71 966.55
  C 1522.57 951.34 1523.51 935.41 1523.47 920.06
  Q 1523.47 919.51 1524.02 919.51
  L 1535.15 919.48
  Q 1535.75 919.48 1535.75 920.08
  L 1535.75 977.00
  Q 1535.75 977.50 1535.25 977.50
  L 1518.01 977.50
  A 0.81 0.81 0.0 0 1 1517.28 977.04
  Q 1508.46 958.71 1499.77 940.34
  Q 1497.18 934.87 1495.57 929.36
  Z"
/>
<path fill="#0066b2" d="
  M 154.50 952.57
  L 154.50 967.68
  A 0.32 0.32 0.0 0 0 154.82 968.00
  L 180.93 968.00
  A 0.32 0.32 0.0 0 1 181.25 968.32
  L 181.25 977.18
  A 0.32 0.32 0.0 0 1 180.93 977.50
  L 140.82 977.50
  A 0.32 0.32 0.0 0 1 140.50 977.18
  L 140.50 919.82
  A 0.32 0.32 0.0 0 1 140.82 919.50
  L 179.93 919.50
  A 0.32 0.32 0.0 0 1 180.25 919.82
  L 180.25 928.18
  A 0.32 0.32 0.0 0 1 179.93 928.50
  L 154.82 928.50
  A 0.32 0.32 0.0 0 0 154.50 928.82
  L 154.50 942.43
  A 0.32 0.32 0.0 0 0 154.82 942.75
  L 178.43 942.75
  A 0.32 0.32 0.0 0 1 178.75 943.07
  L 178.75 951.93
  A 0.32 0.32 0.0 0 1 178.43 952.25
  L 154.82 952.25
  A 0.32 0.32 0.0 0 0 154.50 952.57
  Z"
/>
<path fill="#0066b2" d="
  M 272.42 976.28
  Q 272.59 976.64 272.48 976.98
  Q 272.32 977.50 271.78 977.50
  L 260.62 977.50
  Q 260.00 977.50 260.00 976.87
  L 260.00 920.00
  Q 260.00 919.50 260.50 919.50
  L 277.95 919.50
  Q 278.38 919.50 278.56 919.88
  C 286.14 935.39 294.25 950.74 299.99 967.03
  A 1.01 1.00 -5.1 0 0 300.76 967.67
  C 301.68 967.83 302.11 967.13 301.98 966.26
  C 299.71 951.28 300.73 935.17 300.76 920.01
  Q 300.76 919.50 301.27 919.50
  L 312.39 919.50
  Q 313.03 919.50 313.03 920.14
  L 312.99 977.01
  Q 312.98 977.50 312.49 977.50
  L 295.29 977.50
  Q 294.85 977.50 294.66 977.10
  Q 285.70 958.65 276.93 940.14
  Q 274.45 934.91 272.96 929.47
  A 0.90 0.89 -9.4 0 0 272.03 928.81
  Q 271.03 928.87 271.11 929.74
  Q 273.28 952.59 272.27 975.53
  Q 272.25 975.92 272.42 976.28
  Z"
/>
<path fill="#0066b2" d="
  M 425.50 929.65
  L 425.50 977.18
  A 0.32 0.32 0.0 0 1 425.18 977.50
  L 411.82 977.50
  A 0.32 0.32 0.0 0 1 411.50 977.18
  L 411.50 929.54
  A 0.32 0.32 0.0 0 0 411.18 929.22
  L 397.05 929.31
  A 0.32 0.32 0.0 0 1 396.73 928.99
  L 396.71 919.82
  A 0.32 0.32 0.0 0 1 397.03 919.50
  L 440.18 919.50
  A 0.32 0.32 0.0 0 1 440.50 919.82
  L 440.50 929.23
  A 0.32 0.32 0.0 0 1 440.17 929.55
  L 425.83 929.33
  A 0.32 0.32 0.0 0 0 425.50 929.65
  Z"
/>
<path fill="#0066b2" d="
  M 783.00 929.70
  L 783.00 977.03
  A 0.47 0.47 0.0 0 1 782.53 977.50
  L 769.47 977.50
  A 0.47 0.47 0.0 0 1 769.00 977.03
  L 769.00 929.78
  A 0.47 0.47 0.0 0 0 768.53 929.31
  L 754.47 929.22
  A 0.47 0.47 0.0 0 1 754.00 928.75
  L 754.00 919.97
  A 0.47 0.47 0.0 0 1 754.47 919.50
  L 797.45 919.50
  A 0.47 0.47 0.0 0 1 797.92 919.97
  L 797.92 928.95
  A 0.47 0.47 0.0 0 1 797.44 929.42
  L 783.48 929.23
  A 0.47 0.47 0.0 0 0 783.00 929.70
  Z"
/>
<path fill="#0066b2" d="
  M 905.93 964.75
  L 881.81 964.75
  A 0.34 0.34 0.0 0 0 881.49 964.98
  L 877.14 977.27
  A 0.34 0.34 0.0 0 1 876.82 977.50
  L 863.91 977.50
  A 0.34 0.34 0.0 0 1 863.59 977.04
  L 885.31 919.72
  A 0.34 0.34 0.0 0 1 885.62 919.50
  L 903.17 919.50
  A 0.34 0.34 0.0 0 1 903.48 919.72
  L 925.18 977.04
  A 0.34 0.34 0.0 0 1 924.86 977.50
  L 910.71 977.50
  A 0.34 0.34 0.0 0 1 910.39 977.27
  L 906.25 964.98
  A 0.34 0.34 0.0 0 0 905.93 964.75
  Z
  M 885.06 954.90
  A 0.31 0.31 0.0 0 0 885.35 955.31
  L 902.58 955.40
  A 0.31 0.31 0.0 0 0 902.87 954.99
  L 894.39 929.56
  A 0.31 0.31 0.0 0 0 893.80 929.56
  L 885.06 954.90
  Z"
/>
<rect fill="#0066b2" x="996.25" y="919.50" width="14.00" height="58.00" rx="0.27"/>
<path fill="#0066b2" d="
  M 1256.25 964.45
  C 1256.58 959.92 1257.37 955.81 1258.71 951.27
  Q 1263.31 935.63 1267.92 919.95
  Q 1268.05 919.50 1268.52 919.50
  L 1288.75 919.50
  Q 1289.25 919.50 1289.25 920.00
  L 1289.25 977.00
  Q 1289.25 977.50 1288.75 977.50
  L 1277.47 977.50
  Q 1276.93 977.50 1276.94 976.97
  L 1277.14 926.20
  A 0.73 0.73 0.0 0 0 1275.71 925.99
  L 1260.61 977.04
  Q 1260.48 977.50 1259.99 977.50
  L 1248.75 977.50
  Q 1248.24 977.50 1248.09 977.01
  C 1243.00 960.13 1237.15 943.00 1233.46 925.77
  A 0.73 0.72 -20.1 0 0 1232.41 925.29
  L 1232.08 925.47
  Q 1231.81 925.61 1231.81 925.91
  L 1232.09 976.83
  Q 1232.10 977.50 1231.42 977.50
  L 1221.25 977.50
  Q 1220.75 977.50 1220.75 977.00
  L 1220.75 920.00
  Q 1220.75 919.50 1221.25 919.50
  L 1241.73 919.50
  Q 1242.21 919.50 1242.34 919.96
  Q 1247.62 937.76 1252.66 955.59
  C 1253.49 958.54 1253.71 961.48 1253.99 964.48
  A 1.14 1.13 -45.6 0 0 1256.25 964.45
  Z"
/>
<path fill="#0066b2" d="
  M 1619.00 929.05
  L 1619.00 919.85
  A 0.35 0.35 0.0 0 1 1619.35 919.50
  L 1662.40 919.50
  A 0.35 0.35 0.0 0 1 1662.75 919.85
  L 1662.75 929.13
  A 0.35 0.35 0.0 0 1 1662.40 929.48
  L 1648.09 929.40
  A 0.35 0.35 0.0 0 0 1647.74 929.75
  L 1647.76 977.15
  A 0.35 0.35 0.0 0 1 1647.41 977.50
  L 1634.07 977.50
  A 0.35 0.35 0.0 0 1 1633.72 977.15
  L 1634.06 929.68
  A 0.35 0.35 0.0 0 0 1633.71 929.33
  L 1619.35 929.40
  A 0.35 0.35 0.0 0 1 1619.00 929.05
  Z"
/>
<path fill="#000000" d="
  M 650.79 928.29
  A 0.22 0.22 0.0 0 1 651.01 928.07
  L 658.55 928.12
  A 10.02 7.69 0.4 0 1 668.52 935.88
  L 668.50 937.76
  A 10.02 7.69 0.4 0 1 658.43 945.38
  L 650.89 945.33
  A 0.22 0.22 0.0 0 1 650.67 945.11
  L 650.79 928.29
  Z"
/>
<path fill="#000000" d="
  M 885.06 954.90
  L 893.80 929.56
  A 0.31 0.31 0.0 0 1 894.39 929.56
  L 902.87 954.99
  A 0.31 0.31 0.0 0 1 902.58 955.40
  L 885.35 955.31
  A 0.31 0.31 0.0 0 1 885.06 954.90
  Z"
/>
</svg>
