<?xml version="1.0" encoding="UTF-8"?>
<svg id="Calque_1" data-name="Calque 1" xmlns="http://www.w3.org/2000/svg" xmlns:xlink="http://www.w3.org/1999/xlink" viewBox="0 0 1001 1004">
  <defs>
    <style>
      .cls-1 {
        fill: #ff9c00;
        stroke: #39ccff;
      }

      .cls-1, .cls-2, .cls-3, .cls-4 {
        stroke-miterlimit: 10;
        stroke-width: 2px;
      }

      .cls-2 {
        fill: #39ccff;
      }

      .cls-2, .cls-3 {
        stroke: #fff;
      }

      .cls-5 {
        filter: url(#f2);
      }

      .cls-6 {
        filter: url(#f2-3);
      }

      .cls-7 {
        filter: url(#f2-2);
      }

      .cls-3 {
        fill: none;
      }

      .cls-4 {
        fill: #432f1f;
        opacity: 0;
        stroke: #432f1f;
      }
    </style>
    <filter id="f2">
      <feGaussianBlur in="SourceGraphic" stdDeviation="4"/>
    </filter>
    <filter id="f2-2" data-name="f2">
      <feGaussianBlur in="SourceGraphic" stdDeviation="4"/>
    </filter>
    <filter id="f2-3" data-name="f2">
      <feGaussianBlur in="SourceGraphic" stdDeviation="4"/>
    </filter>
  </defs>
  <g class="cls-5">
    <ellipse class="cls-3" cx="505.09" cy="500.56" rx="230.5" ry="230.6"/>
  </g>
  <path class="cls-4" d="m505.09,731.16c-127.5,0-230.5-103.8-230.5-230.6s103.7-230.6,230.5-230.6,230.5,103.8,230.5,230.6-103.7,230.6-230.5,230.6Z"/>
  <g class="cls-7">
    <path class="cls-3" d="m912.19,488.26l-154.2-92.2c-7.9-20.9-19.5-40.4-32.4-59.1-.7-.7-.7-1.4,0-1.4l25.2-95.9c.7-2.9,0-6.5-2.2-7.9-2.2-2.2-5.8-2.9-8.6-1.4l-93.7,33.2h-1.4c-15.1-9.4-31-16.6-47.5-23.1l-92.3-150.8c-2.2-3.6-5-5-8.6-5s-7.2,2.2-8.6,5l-90.8,152.8c-14.4,5.8-28.8,13-41.8,20.9l-100.9-37.5c-2.9-1.4-6.5-.7-8.6,1.4-2.2,2.2-2.9,5.8-2.2,8.6l33.1,98.7v1.4c-13.7,18.7-24.5,39.6-33.1,61.3l-154.2,90.3c-3.6,2.2-5,5-5,8.6s2.2,7.2,5,8.6l152,86.5c6.5,18.7,15.1,36.8,25.2,53.3.7.7.7,1.4,0,1.4l-38.8,102.5c-1.4,2.9-.7,6.5,1.4,8.6,2.2,2.2,5,3.6,8.6,2.2l109.5-28.8h1.4c18,12.3,36.7,21.6,56.2,29.6l84.3,154.2c1.4,3.6,5,5,8.6,5s7.2-2.2,8.6-5l87.2-152.1c19.5-7.2,38.9-16.6,56.9-28.1.7-.7,1.4-.7,1.4,0l104.5,26.7c2.9.7,6.5,0,7.9-2.2,2.2-2.2,2.9-5.8,1.4-8.6l-34.4-95.9v-1.4c7.9-12.3,15.1-25.9,20.9-38.9l130.4-91.5,28.1-16.6c2.2-1.4,4.3-3.6,5-6.5v-2.8c1.5-3,.1-6.6-3.5-8.1Z"/>
  </g>
  <path class="cls-1" d="m912.19,488.26l-154.2-92.2c-7.9-20.9-19.5-40.4-32.4-59.1-.7-.7-.7-1.4,0-1.4l25.2-95.9c.7-2.9,0-6.5-2.2-7.9-2.2-2.2-5.8-2.9-8.6-1.4l-93.7,33.2h-1.4c-15.1-9.4-31-16.6-47.5-23.1l-92.3-150.8c-2.2-3.6-5-5-8.6-5s-7.2,2.2-8.6,5l-90.8,152.8c-14.4,5.8-28.8,13-41.8,20.9l-100.9-37.5c-2.9-1.4-6.5-.7-8.6,1.4-2.2,2.2-2.9,5.8-2.2,8.6l33.1,98.7v1.4c-13.7,18.7-24.5,39.6-33.1,61.3l-154.2,90.3c-3.6,2.2-5,5-5,8.6s2.2,7.2,5,8.6l152,86.5c6.5,18.7,15.1,36.8,25.2,53.3.7.7.7,1.4,0,1.4l-38.8,102.5c-1.4,2.9-.7,6.5,1.4,8.6,2.2,2.2,5,3.6,8.6,2.2l109.5-28.8h1.4c18,12.3,36.7,21.6,56.2,29.6l84.3,154.2c1.4,3.6,5,5,8.6,5s7.2-2.2,8.6-5l87.2-152.1c19.5-7.2,38.9-16.6,56.9-28.1.7-.7,1.4-.7,1.4,0l104.5,26.7c2.9.7,6.5,0,7.9-2.2,2.2-2.2,2.9-5.8,1.4-8.6l-34.4-95.9v-1.4c7.9-12.3,15.1-25.9,20.9-38.9l130.4-91.5,28.1-16.6c2.2-1.4,4.3-3.6,5-6.5v-2.8c1.5-3,.1-6.6-3.5-8.1Z"/>
  <g class="cls-6">
    <path class="cls-3" d="m661.44,500.54l4.32-7.21-.72-7.21c-5.04-28.11-18.01-59.82-18.01-59.82-1.44-2.88,0-3.6,0-3.6,2.16-4.32,0-6.49,0-6.49l-2.16-3.6c-5.04-8.65-36.74-45.41-36.74-45.41-5.76-5.77-10.81-10.81-10.81-10.81-1.44,1.44-5.04.72-5.04.72-14.41-7.21-30.98-12.25-30.98-12.25l-37.46-12.25c-8.65-4.32-16.57,0-16.57,0-9.37,3.6-14.41-.72-14.41-.72-5.04-3.6-10.81-5.05-14.41-4.33-5.04.72-7.92,4.33-7.92,4.33l-14.41,7.93c-15.85,9.37-30.26,20.9-30.26,20.9-10.09,7.21-11.53,12.25-11.53,12.25l-5.76,6.49c-5.76,5.77-12.97,15.14-12.97,15.14-2.88,5.04-8.65,7.21-8.65,7.21l-16.57,7.21c-3.6,1.44-2.88,3.6-2.88,3.6v19.46c-.72,5.04-.72,12.97-.72,12.97-.72,11.53,4.32,41.8,4.32,41.8,0,5.77,2.88,6.49,2.88,6.49l42.51,57.66c1.44,3.6,7.92,6.49,7.92,6.49,4.32,2.16,12.25,10.09,12.25,10.09,2.88,2.88,7.2,3.6,7.2,3.6l7.92,2.88s17.29,2.16,23.77.72c6.48-1.44,18.73-6.49,18.73-6.49,5.04-3.6,7.93-2.88,7.93-2.88h5.76c6.48.72,11.53-3.6,11.53-3.6,3.6-.72,11.53-8.65,15.13-15.14,2.88-4.32,5.76-7.93,5.76-7.93,2.16-2.16,1.44-12.25,1.44-12.25,0-9.37-1.44-20.9-1.44-20.9-1.44-10.09-7.92-23.06-7.92-23.06-2.16-2.16-2.88-5.05-2.88-5.05-.72-2.16-4.32-7.93-4.32-7.93-5.04-5.77-8.64-6.49-8.64-6.49-23.77-5.77-36.02-.72-36.02-.72-6.48,1.44-7.92,2.88-7.92,2.88-2.16,4.32.72,10.81.72,10.81,0,5.05,6.48,10.81,6.48,10.81,2.16,2.88,2.88,7.21,2.88,7.21,0,3.6-3.6,6.49-3.6,6.49-4.32,2.16-10.81,4.33-10.81,4.33-2.16.72-8.64.72-8.64.72-4.32,1.44-5.04-1.44-5.04-1.44-3.6-3.6-6.48-12.25-6.48-12.25,0-2.88-3.6-4.32-3.6-4.32-5.76-10.09-7.93-25.23-7.93-25.23.72-19.46,2.88-25.95,2.88-25.95-.72-8.65,11.53-12.25,11.53-12.25l7.93-4.33c32.42-30.99,85.73-23.06,85.73-23.06,5.04-3.6,10.81-4.32,14.41-1.44,3.6,2.88,2.88,10.81,2.88,10.81,14.41,10.81,21.61,29.55,21.61,29.55,10.81,25.23,7.2,67.75,7.2,67.75-1.44,7.93,1.44,14.42,1.44,14.42,5.76,10.09,0,13.7,0,13.7l-8.65,5.05c-2.88,1.44-.72,5.77-.72,5.77.72,6.49-4.32,10.81-4.32,10.81l-6.48,4.32c-34.58,41.08-85.01,50.45-85.01,50.45-10.09,2.88-15.13,3.6-15.13,3.6-5.76.72-5.76,4.32-5.76,4.32-4.32,5.05-16.57,11.53-16.57,11.53-10.09,3.6-25.94,5.77-25.94,5.77-5.76-.72-8.64,5.04-8.64,5.04-5.76,4.32-14.41,3.6-14.41,3.6-10.81-.72-13.69,2.88-13.69,2.88-5.76-1.44-3.6.72-3.6.72,6.48,10.09,12.25,12.25,12.25,12.25,5.76-1.44,6.48.72,6.48.72l34.58,10.09c15.85,3.6,32.42,8.65,32.42,8.65,2.88,1.44,5.04,2.88,6.48,2.88s3.6-2.88,3.6-2.88c6.48-3.6,32.42-8.65,32.42-8.65l22.33-2.88c5.04-.72,12.25-1.44,12.25-1.44,43.23-12.97,56.91-25.95,56.91-25.95,3.6-2.16,6.48-10.81,6.48-10.81,2.16-5.77,5.04-6.49,5.04-6.49,3.6-1.44,12.25-8.65,12.25-8.65,6.48-4.32,10.09-14.41,10.09-14.41,1.44-6.49,1.44-7.93,1.44-7.93,1.44-6.49,15.85-26.67,15.85-26.67,5.04-7.93,6.48-15.86,6.48-15.86,4.32-21.62,2.88-36.76,2.88-36.76l-.72-2.88c-4.32-5.04-1.44-7.21-1.44-7.21Z"/>
  </g>
  <path class="cls-2" d="m661.44,500.54l4.32-7.21-.72-7.21c-5.04-28.11-18.01-59.82-18.01-59.82-1.44-2.88,0-3.6,0-3.6,2.16-4.32,0-6.49,0-6.49l-2.16-3.6c-5.04-8.65-36.74-45.41-36.74-45.41-5.76-5.77-10.81-10.81-10.81-10.81-1.44,1.44-5.04.72-5.04.72-14.41-7.21-30.98-12.25-30.98-12.25l-37.46-12.25c-8.65-4.32-16.57,0-16.57,0-9.37,3.6-14.41-.72-14.41-.72-5.04-3.6-10.81-5.05-14.41-4.33-5.04.72-7.92,4.33-7.92,4.33l-14.41,7.93c-15.85,9.37-30.26,20.9-30.26,20.9-10.09,7.21-11.53,12.25-11.53,12.25l-5.76,6.49c-5.76,5.77-12.97,15.14-12.97,15.14-2.88,5.04-8.65,7.21-8.65,7.21l-16.57,7.21c-3.6,1.44-2.88,3.6-2.88,3.6v19.46c-.72,5.04-.72,12.97-.72,12.97-.72,11.53,4.32,41.8,4.32,41.8,0,5.77,2.88,6.49,2.88,6.49l42.51,57.66c1.44,3.6,7.92,6.49,7.92,6.49,4.32,2.16,12.25,10.09,12.25,10.09,2.88,2.88,7.2,3.6,7.2,3.6l7.92,2.88s17.29,2.16,23.77.72c6.48-1.44,18.73-6.49,18.73-6.49,5.04-3.6,7.93-2.88,7.93-2.88h5.76c6.48.72,11.53-3.6,11.53-3.6,3.6-.72,11.53-8.65,15.13-15.14,2.88-4.32,5.76-7.93,5.76-7.93,2.16-2.16,1.44-12.25,1.44-12.25,0-9.37-1.44-20.9-1.44-20.9-1.44-10.09-7.92-23.06-7.92-23.06-2.16-2.16-2.88-5.05-2.88-5.05-.72-2.16-4.32-7.93-4.32-7.93-5.04-5.77-8.64-6.49-8.64-6.49-23.77-5.77-36.02-.72-36.02-.72-6.48,1.44-7.92,2.88-7.92,2.88-2.16,4.32.72,10.81.72,10.81,0,5.05,6.48,10.81,6.48,10.81,2.16,2.88,2.88,7.21,2.88,7.21,0,3.6-3.6,6.49-3.6,6.49-4.32,2.16-10.81,4.33-10.81,4.33-2.16.72-8.64.72-8.64.72-4.32,1.44-5.04-1.44-5.04-1.44-3.6-3.6-6.48-12.25-6.48-12.25,0-2.88-3.6-4.32-3.6-4.32-5.76-10.09-7.93-25.23-7.93-25.23.72-19.46,2.88-25.95,2.88-25.95-.72-8.65,11.53-12.25,11.53-12.25l7.93-4.33c32.42-30.99,85.73-23.06,85.73-23.06,5.04-3.6,10.81-4.32,14.41-1.44,3.6,2.88,2.88,10.81,2.88,10.81,14.41,10.81,21.61,29.55,21.61,29.55,10.81,25.23,7.2,67.75,7.2,67.75-1.44,7.93,1.44,14.42,1.44,14.42,5.76,10.09,0,13.7,0,13.7l-8.65,5.05c-2.88,1.44-.72,5.77-.72,5.77.72,6.49-4.32,10.81-4.32,10.81l-6.48,4.32c-34.58,41.08-85.01,50.45-85.01,50.45-10.09,2.88-15.13,3.6-15.13,3.6-5.76.72-5.76,4.32-5.76,4.32-4.32,5.05-16.57,11.53-16.57,11.53-10.09,3.6-25.94,5.77-25.94,5.77-5.76-.72-8.64,5.04-8.64,5.04-5.76,4.32-14.41,3.6-14.41,3.6-10.81-.72-13.69,2.88-13.69,2.88-5.76-1.44-3.6.72-3.6.72,6.48,10.09,12.25,12.25,12.25,12.25,5.76-1.44,6.48.72,6.48.72l34.58,10.09c15.85,3.6,32.42,8.65,32.42,8.65,2.88,1.44,5.04,2.88,6.48,2.88s3.6-2.88,3.6-2.88c6.48-3.6,32.42-8.65,32.42-8.65l22.33-2.88c5.04-.72,12.25-1.44,12.25-1.44,43.23-12.97,56.91-25.95,56.91-25.95,3.6-2.16,6.48-10.81,6.48-10.81,2.16-5.77,5.04-6.49,5.04-6.49,3.6-1.44,12.25-8.65,12.25-8.65,6.48-4.32,10.09-14.41,10.09-14.41,1.44-6.49,1.44-7.93,1.44-7.93,1.44-6.49,15.85-26.67,15.85-26.67,5.04-7.93,6.48-15.86,6.48-15.86,4.32-21.62,2.88-36.76,2.88-36.76l-.72-2.88c-4.32-5.04-1.44-7.21-1.44-7.21Z"/>
</svg>